<svg id="Layer_1" data-name="Layer 1" xmlns="http://www.w3.org/2000/svg" viewBox="0 0 349.6 312.2"><defs><style>.cls-1{fill:#6ca5d8;}.cls-2{fill:#c9249e;}.cls-3{fill:none;}.cls-4{isolation:isolate;}.cls-5{fill:#fff;}.cls-6{fill:#6f3e9e;}.cls-7{fill:#5f6d7a;}</style></defs><path class="cls-1" d="M46.65,201.34a66.44,66.44,0,0,1,27.4-12.5,51.57,51.57,0,0,1,37.84,7c8.6,5.57,14.4,14.2,18.14,23.6,2.69,6.73,3.37,14.07,3.65,21.25.34,8.47.22,17.08,2.25,25.36a54.9,54.9,0,0,0,10,20.53.75.75,0,0,1-.91,1.15c-1.93-.91-4-1.62-5.62-2.2a47.62,47.62,0,0,0-11.48-2.58c-7.73-.74-15.36.68-22.67,3.13-4.64,1.55-9,3.88-13.64,5.41A55.89,55.89,0,0,1,76.4,294.1c-14.4.5-29.9-5.3-40.8-14.7-17.86-15.4-18.39-39.77-6.49-59A71.52,71.52,0,0,1,46.65,201.34Z"/><path class="cls-2" d="M199.5,248.21c-.11-1.8-.2-3.59-.25-5.37-.51-22.37,12.77-42.66,33-52.11,1.34-.63,2.7-1.2,4.09-1.72,21.78-8.14,47.6-2.11,65.18,12.63a56.45,56.45,0,0,1,18.59,57.17c-4.73,18.79-19.32,34.9-38.46,39.41-16.79,4-33.16-3-48.86-8.12-8-2.63-16.31-4.8-24.77-4.91a33.88,33.88,0,0,0-11.95,2.13,51.6,51.6,0,0,0-6.42,3.07,1,1,0,0,1-1.16-1.51,45.88,45.88,0,0,0,9.69-16.13C200.84,264.8,200,256.46,199.5,248.21Z"/><rect class="cls-3" x="205.4" y="228" width="112.4" height="43.6"/><g class="cls-4"><g class="cls-4"><path class="cls-5" d="M213.05,228.55v8.39h-.84V233h-4.55v3.92h-.84v-8.39h.84v3.77h4.55v-3.77Z"/><path class="cls-5" d="M216.18,236.62a2.87,2.87,0,0,1-1.17-1.17,3.63,3.63,0,0,1-.42-1.78,3.57,3.57,0,0,1,.43-1.79,3.06,3.06,0,0,1,1.17-1.17,3.55,3.55,0,0,1,3.35,0,2.93,2.93,0,0,1,1.17,1.17,3.57,3.57,0,0,1,.43,1.79,3.62,3.62,0,0,1-.43,1.77,3,3,0,0,1-1.19,1.18,3.43,3.43,0,0,1-1.68.42A3.28,3.28,0,0,1,216.18,236.62ZM219,236a2.18,2.18,0,0,0,.89-.89,2.83,2.83,0,0,0,.34-1.45,3,3,0,0,0-.33-1.46,2.24,2.24,0,0,0-.89-.89,2.63,2.63,0,0,0-2.4,0,2.16,2.16,0,0,0-.88.89,3.37,3.37,0,0,0,0,2.91,2.14,2.14,0,0,0,.87.89,2.55,2.55,0,0,0,2.4,0Z"/><path class="cls-5" d="M231.31,230.39l-2.05,6.55h-.84l-1.81-5.49-1.81,5.49H224l-2.06-6.55h.86l1.63,5.7,1.83-5.7h.84l1.82,5.71,1.62-5.71Z"/><path class="cls-5" d="M235.76,231.88a3,3,0,0,1,1.13-1.17,3.09,3.09,0,0,1,1.61-.42,2.94,2.94,0,0,1,1.56.42,2.56,2.56,0,0,1,1,1.1v-3.75h.84v8.88h-.84v-1.46a2.57,2.57,0,0,1-1,1.12,3,3,0,0,1-1.61.44,3.09,3.09,0,0,1-1.61-.42,2.92,2.92,0,0,1-1.12-1.19,4.14,4.14,0,0,1,0-3.55Zm5,.39a2.36,2.36,0,0,0-.88-.92,2.6,2.6,0,0,0-2.48,0,2.22,2.22,0,0,0-.87.9,3.27,3.27,0,0,0,0,2.82,2.18,2.18,0,0,0,.87.93,2.53,2.53,0,0,0,2.48,0,2.3,2.3,0,0,0,.88-.92,3.2,3.2,0,0,0,0-2.79Z"/><path class="cls-5" d="M245.05,236.62a2.93,2.93,0,0,1-1.17-1.17,3.63,3.63,0,0,1-.42-1.78,3.57,3.57,0,0,1,.43-1.79,3,3,0,0,1,1.18-1.17,3.3,3.3,0,0,1,1.66-.42,3.38,3.38,0,0,1,1.68.42,2.93,2.93,0,0,1,1.17,1.17,3.57,3.57,0,0,1,.43,1.79,3.52,3.52,0,0,1-.43,1.77,3,3,0,0,1-1.19,1.18,3.41,3.41,0,0,1-1.68.42A3.28,3.28,0,0,1,245.05,236.62Zm2.86-.61a2.12,2.12,0,0,0,.89-.89,2.83,2.83,0,0,0,.35-1.45,3,3,0,0,0-.34-1.46,2.24,2.24,0,0,0-.89-.89,2.63,2.63,0,0,0-2.4,0,2.16,2.16,0,0,0-.88.89,3.37,3.37,0,0,0,0,2.91,2.14,2.14,0,0,0,.87.89,2.55,2.55,0,0,0,2.4,0Z"/><path class="cls-5" d="M255.67,228.55v8.39h-.84v-8.39Z"/><path class="cls-5" d="M262.55,230.61a2.67,2.67,0,0,1,1.4-.34v.88h-.23a2.11,2.11,0,0,0-1.46.49,2.09,2.09,0,0,0-.55,1.64v3.66h-.84v-6.55h.84v1.16A2,2,0,0,1,262.55,230.61Z"/><path class="cls-5" d="M271.12,234h-5.44a2.53,2.53,0,0,0,.36,1.27,2.17,2.17,0,0,0,.85.8,2.5,2.5,0,0,0,1.15.27,2.28,2.28,0,0,0,1.38-.4,1.87,1.87,0,0,0,.74-1.06H271a2.76,2.76,0,0,1-1,1.56,3.12,3.12,0,0,1-2,.61,3.27,3.27,0,0,1-1.65-.42,2.88,2.88,0,0,1-1.15-1.17,3.74,3.74,0,0,1-.41-1.78,3.67,3.67,0,0,1,.41-1.79,2.82,2.82,0,0,1,1.14-1.18,3.35,3.35,0,0,1,1.66-.41,3.22,3.22,0,0,1,1.64.41,2.78,2.78,0,0,1,1.08,1.1,3.15,3.15,0,0,1,.38,1.53C271.14,233.62,271.13,233.84,271.12,234ZM270,232.06a1.89,1.89,0,0,0-.83-.78A2.5,2.5,0,0,0,268,231a2.29,2.29,0,0,0-1.6.6,2.42,2.42,0,0,0-.73,1.7h4.61A2.25,2.25,0,0,0,270,232.06Z"/><path class="cls-5" d="M273.77,231.1v4.07a1.1,1.1,0,0,0,.23.82,1.08,1.08,0,0,0,.8.23h.77v.72h-.9a1.88,1.88,0,0,1-1.32-.41,1.82,1.82,0,0,1-.43-1.36V231.1H272v-.71h.92v-1.64h.85v1.64h1.8v.71Z"/><path class="cls-5" d="M282.62,230.39v6.55h-.84v-1.15a2,2,0,0,1-.88.94,2.86,2.86,0,0,1-1.35.32,2.62,2.62,0,0,1-1.92-.73,2.81,2.81,0,0,1-.74-2.1v-3.83h.83v3.73a2.25,2.25,0,0,0,.53,1.63,1.91,1.91,0,0,0,1.46.57,2,2,0,0,0,1.51-.6,2.48,2.48,0,0,0,.56-1.77v-3.56Z"/><path class="cls-5" d="M286.23,230.61a2.67,2.67,0,0,1,1.4-.34v.88h-.23a1.85,1.85,0,0,0-2,2.13v3.66h-.84v-6.55h.84v1.16A2.1,2.1,0,0,1,286.23,230.61Z"/><path class="cls-5" d="M293.88,231a2.77,2.77,0,0,1,.74,2.1v3.84h-.82V233.2a2.26,2.26,0,0,0-.54-1.63,1.89,1.89,0,0,0-1.46-.57,2,2,0,0,0-1.51.6,2.52,2.52,0,0,0-.56,1.77v3.57h-.84v-6.55h.84v1.12a2.16,2.16,0,0,1,.9-.92,2.75,2.75,0,0,1,1.33-.32A2.62,2.62,0,0,1,293.88,231Z"/><path class="cls-5" d="M299.79,231.88a2.87,2.87,0,0,1,1.12-1.17,3.09,3.09,0,0,1,1.61-.42,2.92,2.92,0,0,1,1.61.44,2.41,2.41,0,0,1,1,1.1v-1.44H306v6.55h-.84v-1.45a2.63,2.63,0,0,1-1,1.11,2.92,2.92,0,0,1-1.61.44,3.08,3.08,0,0,1-1.6-.42,2.92,2.92,0,0,1-1.12-1.19,4.14,4.14,0,0,1,0-3.55Zm5,.39a2.36,2.36,0,0,0-.88-.92,2.4,2.4,0,0,0-1.23-.32,2.47,2.47,0,0,0-1.25.31,2.22,2.22,0,0,0-.87.9,3.27,3.27,0,0,0,0,2.82,2.18,2.18,0,0,0,.87.93,2.47,2.47,0,0,0,1.25.32,2.41,2.41,0,0,0,1.23-.33,2.3,2.3,0,0,0,.88-.92,3.2,3.2,0,0,0,0-2.79Z"/><path class="cls-5" d="M312.86,231a2.78,2.78,0,0,1,.75,2.1v3.84h-.83V233.2a2.3,2.3,0,0,0-.53-1.63,1.92,1.92,0,0,0-1.46-.57,2,2,0,0,0-1.51.6,2.48,2.48,0,0,0-.57,1.77v3.57h-.84v-6.55h.84v1.12a2.16,2.16,0,0,1,.9-.92,2.78,2.78,0,0,1,1.33-.32A2.59,2.59,0,0,1,312.86,231Z"/></g><g class="cls-4"><path class="cls-5" d="M221.51,243.37a.63.63,0,0,1,0-.88.63.63,0,0,1,.86,0,.63.63,0,0,1,0,.88.6.6,0,0,1-.86,0Zm.85,1.42v6.55h-.84v-6.55Z"/><path class="cls-5" d="M225.36,245.5v4.06a1.18,1.18,0,0,0,.23.83,1.12,1.12,0,0,0,.8.23h.77v.72h-.9a1.88,1.88,0,0,1-1.32-.41,1.83,1.83,0,0,1-.43-1.37V245.5h-.91v-.71h.91v-1.65h.85v1.65h1.8v.71Z"/><path class="cls-5" d="M234.44,248.39H229a2.56,2.56,0,0,0,.36,1.27,2.11,2.11,0,0,0,.85.8,2.5,2.5,0,0,0,1.15.27,2.28,2.28,0,0,0,1.38-.4,1.81,1.81,0,0,0,.73-1.06h.89a2.76,2.76,0,0,1-1,1.56,3.12,3.12,0,0,1-2,.61,3.27,3.27,0,0,1-1.65-.42,2.88,2.88,0,0,1-1.15-1.17,3.64,3.64,0,0,1-.41-1.79,3.74,3.74,0,0,1,.4-1.78,2.91,2.91,0,0,1,1.15-1.18,3.35,3.35,0,0,1,1.66-.41,3.22,3.22,0,0,1,1.64.41,2.78,2.78,0,0,1,1.08,1.1,3.15,3.15,0,0,1,.38,1.53A5.39,5.39,0,0,1,234.44,248.39Zm-1.12-1.93a1.89,1.89,0,0,0-.83-.78,2.5,2.5,0,0,0-1.15-.27,2.29,2.29,0,0,0-1.6.6,2.42,2.42,0,0,0-.73,1.7h4.61A2.34,2.34,0,0,0,233.32,246.46Z"/><path class="cls-5" d="M245.68,245.39a2.85,2.85,0,0,1,.73,2.11v3.84h-.83V247.6a2.32,2.32,0,0,0-.52-1.64,1.82,1.82,0,0,0-1.4-.56,1.92,1.92,0,0,0-1.48.61,2.61,2.61,0,0,0-.55,1.78v3.55h-.83V247.6a2.37,2.37,0,0,0-.51-1.64,1.86,1.86,0,0,0-1.42-.56,1.9,1.9,0,0,0-1.47.61,2.57,2.57,0,0,0-.56,1.78v3.55H236v-6.55h.84v1.13a2.16,2.16,0,0,1,.89-.93,2.84,2.84,0,0,1,2.78.09,2.27,2.27,0,0,1,.93,1.2,2.26,2.26,0,0,1,.91-1.2,2.64,2.64,0,0,1,1.45-.41A2.55,2.55,0,0,1,245.68,245.39Z"/><path class="cls-5" d="M252.4,243v8.39h-.84V243Z"/><path class="cls-5" d="M259.42,245.12a3,3,0,0,1,1.6-.43,3.09,3.09,0,0,1,1.61.42,2.91,2.91,0,0,1,1.11,1.17,3.73,3.73,0,0,1,.4,1.77,3.77,3.77,0,0,1-.4,1.78,3,3,0,0,1-1.11,1.19,3.12,3.12,0,0,1-1.61.42,3,3,0,0,1-1.61-.43,2.52,2.52,0,0,1-1-1.11v1.44h-.83v-8.88h.83v3.78A2.75,2.75,0,0,1,259.42,245.12Zm3.55,1.52a2.22,2.22,0,0,0-.87-.9,2.43,2.43,0,0,0-1.24-.31,2.35,2.35,0,0,0-1.23.32,2.26,2.26,0,0,0-.89.92,3.2,3.2,0,0,0,0,2.79,2.26,2.26,0,0,0,.89.92,2.36,2.36,0,0,0,1.23.33,2.44,2.44,0,0,0,1.24-.32,2.18,2.18,0,0,0,.87-.93,3.27,3.27,0,0,0,0-2.82Z"/><path class="cls-5" d="M266.9,251a3,3,0,0,1-1.17-1.17,3.64,3.64,0,0,1-.42-1.79,3.53,3.53,0,0,1,.43-1.78,3,3,0,0,1,1.18-1.17,3.3,3.3,0,0,1,1.66-.42,3.38,3.38,0,0,1,1.68.42,2.93,2.93,0,0,1,1.17,1.17,3.9,3.9,0,0,1,0,3.56,3,3,0,0,1-1.19,1.18,3.38,3.38,0,0,1-1.68.42A3.28,3.28,0,0,1,266.9,251Zm2.86-.61a2.18,2.18,0,0,0,.89-.89,2.84,2.84,0,0,0,.35-1.46,2.93,2.93,0,0,0-.34-1.45,2.18,2.18,0,0,0-.89-.89,2.63,2.63,0,0,0-2.4,0,2.16,2.16,0,0,0-.88.89,3.37,3.37,0,0,0,0,2.91,2.16,2.16,0,0,0,.88.89,2.42,2.42,0,0,0,1.19.3A2.48,2.48,0,0,0,269.76,250.41Z"/><path class="cls-5" d="M279.07,244.79v6.55h-.84v-1.15a2,2,0,0,1-.89.93,2.72,2.72,0,0,1-1.34.33,2.62,2.62,0,0,1-1.92-.73,2.77,2.77,0,0,1-.74-2.1v-3.83h.82v3.73a2.26,2.26,0,0,0,.54,1.63,1.89,1.89,0,0,0,1.46.57,2,2,0,0,0,1.51-.6,2.52,2.52,0,0,0,.56-1.77v-3.56Z"/><path class="cls-5" d="M285.35,245.12a2.58,2.58,0,0,1,1,1.1v-1.43h.84v6.72a3.24,3.24,0,0,1-.39,1.6,2.71,2.71,0,0,1-1.08,1.07,3.34,3.34,0,0,1-1.59.38A3.47,3.47,0,0,1,282,254a2.56,2.56,0,0,1-1-1.63h.83a2.06,2.06,0,0,0,.82,1.09,2.6,2.6,0,0,0,1.48.41,2.35,2.35,0,0,0,1.14-.28,1.83,1.83,0,0,0,.79-.79,2.51,2.51,0,0,0,.29-1.25v-1.62a2.63,2.63,0,0,1-1,1.11,2.88,2.88,0,0,1-1.6.44,3.09,3.09,0,0,1-1.61-.42,2.92,2.92,0,0,1-1.12-1.19,3.77,3.77,0,0,1-.4-1.78,3.73,3.73,0,0,1,.4-1.77,2.87,2.87,0,0,1,1.12-1.17,3.09,3.09,0,0,1,1.61-.42A3,3,0,0,1,285.35,245.12Zm.66,1.55a2.3,2.3,0,0,0-.88-.92,2.4,2.4,0,0,0-1.23-.32,2.47,2.47,0,0,0-1.25.31,2.22,2.22,0,0,0-.87.9,3.27,3.27,0,0,0,0,2.82,2.18,2.18,0,0,0,.87.93,2.47,2.47,0,0,0,1.25.32,2.41,2.41,0,0,0,1.23-.33,2.3,2.3,0,0,0,.88-.92,3.2,3.2,0,0,0,0-2.79Z"/><path class="cls-5" d="M293.55,245a2.24,2.24,0,0,1,.94,1,3.33,3.33,0,0,1,.34,1.56v3.84H294V247.6a2.33,2.33,0,0,0-.53-1.64,2.19,2.19,0,0,0-3,0,2.48,2.48,0,0,0-.57,1.77v3.57h-.84v-8.88h.84v3.45a2.21,2.21,0,0,1,.92-.92,2.9,2.9,0,0,1,1.36-.32A2.82,2.82,0,0,1,293.55,245Z"/><path class="cls-5" d="M297.78,245.5v4.06a1.18,1.18,0,0,0,.23.83,1.12,1.12,0,0,0,.8.23h.77v.72h-.9a1.88,1.88,0,0,1-1.32-.41,1.83,1.83,0,0,1-.43-1.37V245.5H296v-.71h.91v-1.65h.85v1.65h1.8v.71Z"/></g><g class="cls-4"><path class="cls-5" d="M241.93,265.42a3.06,3.06,0,0,1-1.17-1.17,3.64,3.64,0,0,1-.42-1.79,3.55,3.55,0,0,1,.43-1.78,3,3,0,0,1,1.18-1.17,3.3,3.3,0,0,1,1.66-.42,3.38,3.38,0,0,1,1.68.42,2.87,2.87,0,0,1,1.17,1.17,3.9,3.9,0,0,1,0,3.56,3,3,0,0,1-1.19,1.18,3.38,3.38,0,0,1-1.68.42A3.28,3.28,0,0,1,241.93,265.42Zm2.86-.61a2.12,2.12,0,0,0,.89-.89,2.84,2.84,0,0,0,.35-1.46,2.93,2.93,0,0,0-.34-1.45,2.18,2.18,0,0,0-.89-.89,2.63,2.63,0,0,0-2.4,0,2.16,2.16,0,0,0-.88.89,3.37,3.37,0,0,0,0,2.91,2.1,2.1,0,0,0,.88.89,2.42,2.42,0,0,0,1.19.3A2.48,2.48,0,0,0,244.79,264.81Z"/><path class="cls-5" d="M253.42,259.79a2.85,2.85,0,0,1,.74,2.11v3.84h-.83V262a2.25,2.25,0,0,0-.53-1.63,1.91,1.91,0,0,0-1.46-.57,2,2,0,0,0-1.51.6,2.48,2.48,0,0,0-.56,1.77v3.57h-.84v-6.55h.84v1.12a2.05,2.05,0,0,1,.9-.92,2.75,2.75,0,0,1,1.33-.32A2.66,2.66,0,0,1,253.42,259.79Z"/><path class="cls-5" d="M256.86,256.86v8.88H256v-8.88Z"/><path class="cls-5" d="M258.76,257.77a.6.6,0,0,1-.18-.44.59.59,0,0,1,.18-.44.63.63,0,0,1,.86,0,.59.59,0,0,1,.18.44.6.6,0,0,1-.18.44.6.6,0,0,1-.86,0Zm.85,1.42v6.55h-.84v-6.55Z"/><path class="cls-5" d="M266.51,259.79a2.85,2.85,0,0,1,.74,2.11v3.84h-.82V262a2.26,2.26,0,0,0-.54-1.63,1.89,1.89,0,0,0-1.46-.57,2,2,0,0,0-1.51.6,2.48,2.48,0,0,0-.56,1.77v3.57h-.84v-6.55h.84v1.12a2.16,2.16,0,0,1,.9-.92,2.75,2.75,0,0,1,1.33-.32A2.66,2.66,0,0,1,266.51,259.79Z"/><path class="cls-5" d="M275,262.79h-5.44a2.63,2.63,0,0,0,.36,1.27,2.17,2.17,0,0,0,.85.8,2.51,2.51,0,0,0,1.16.27,2.27,2.27,0,0,0,1.37-.4,1.87,1.87,0,0,0,.74-1.06H275a2.77,2.77,0,0,1-1,1.56,3.11,3.11,0,0,1-2,.61,3.28,3.28,0,0,1-1.66-.42,2.94,2.94,0,0,1-1.15-1.17,4.09,4.09,0,0,1,0-3.57,2.82,2.82,0,0,1,1.14-1.18,3.36,3.36,0,0,1,1.67-.41,3.18,3.18,0,0,1,1.63.41,2.78,2.78,0,0,1,1.08,1.1,3,3,0,0,1,.38,1.53C275,262.42,275,262.64,275,262.79Zm-1.12-1.93a2,2,0,0,0-.84-.78,2.47,2.47,0,0,0-1.15-.27,2.31,2.31,0,0,0-1.6.6,2.42,2.42,0,0,0-.73,1.7h4.61A2.34,2.34,0,0,0,273.9,260.86Z"/><path class="cls-5" d="M280,257.54a2.31,2.31,0,0,1,.92.86,2.53,2.53,0,0,1,.33,1.29,2.2,2.2,0,0,1-.8,1.9,3.45,3.45,0,0,1-2.17.61l0,1.32h-.72l-.05-1.92h.31a4.06,4.06,0,0,0,1.95-.39,1.56,1.56,0,0,0,.72-1.52,1.68,1.68,0,0,0-.5-1.26,1.85,1.85,0,0,0-1.32-.47,1.81,1.81,0,0,0-1.29.45,1.57,1.57,0,0,0-.48,1.21H276a2.19,2.19,0,0,1,1.24-2.08,2.86,2.86,0,0,1,1.33-.29A3.14,3.14,0,0,1,280,257.54Zm-2.56,8.08a.6.6,0,0,1-.17-.44.58.58,0,0,1,.61-.61.57.57,0,0,1,.43.17.62.62,0,0,1,.17.44.64.64,0,0,1-.17.44.58.58,0,0,1-.43.18A.59.59,0,0,1,277.41,265.62Z"/></g></g><rect class="cls-3" x="27.6" y="226.6" width="99.8" height="35.5"/><g class="cls-4"><path class="cls-5" d="M43.94,227.05l-2,7h-1l-1.62-5.61L37.6,234h-1l-2-7h1L37.13,233l1.68-5.91h1l1.6,5.89L43,227.05Z"/><path class="cls-5" d="M48.78,228.7a1.94,1.94,0,0,1,.78.8,2.67,2.67,0,0,1,.29,1.29V234H49v-3.1a1.78,1.78,0,0,0-.41-1.26,1.5,1.5,0,0,0-1.12-.43,1.52,1.52,0,0,0-1.15.45,1.86,1.86,0,0,0-.42,1.31v3h-.91v-7.4h.91v2.7a1.8,1.8,0,0,1,.74-.65,2.5,2.5,0,0,1,1.07-.23A2.46,2.46,0,0,1,48.78,228.7Z"/><path class="cls-5" d="M56.31,231.62H51.93a1.72,1.72,0,0,0,1.78,1.72,1.62,1.62,0,0,0,1-.28,1.41,1.41,0,0,0,.56-.73h1a2.35,2.35,0,0,1-.88,1.28,2.67,2.67,0,0,1-1.64.5,2.82,2.82,0,0,1-1.4-.35,2.44,2.44,0,0,1-1-1,3.39,3.39,0,0,1,0-3,2.39,2.39,0,0,1,.95-1,2.87,2.87,0,0,1,1.42-.34,2.72,2.72,0,0,1,1.38.34,2.35,2.35,0,0,1,.92.93,2.75,2.75,0,0,1,.33,1.35A5.36,5.36,0,0,1,56.31,231.62ZM55.17,230a1.45,1.45,0,0,0-.63-.57,1.92,1.92,0,0,0-.87-.19,1.73,1.73,0,0,0-1.18.44,1.81,1.81,0,0,0-.55,1.22H55.4A1.72,1.72,0,0,0,55.17,230Z"/><path class="cls-5" d="M59.13,228.7a2.17,2.17,0,0,1,1.09-.26v.94H60c-1,0-1.53.55-1.53,1.66v3h-.91v-5.48h.91v.89A1.78,1.78,0,0,1,59.13,228.7Z"/><path class="cls-5" d="M66.24,231.62H61.86a1.72,1.72,0,0,0,1.78,1.72,1.62,1.62,0,0,0,1-.28,1.41,1.41,0,0,0,.56-.73h1a2.35,2.35,0,0,1-.88,1.28,2.67,2.67,0,0,1-1.64.5,2.82,2.82,0,0,1-1.4-.35,2.44,2.44,0,0,1-1-1,3,3,0,0,1-.35-1.49,3.09,3.09,0,0,1,.34-1.49,2.39,2.39,0,0,1,.95-1,2.84,2.84,0,0,1,1.42-.34,2.72,2.72,0,0,1,1.38.34,2.35,2.35,0,0,1,.92.93,2.75,2.75,0,0,1,.33,1.35A5.36,5.36,0,0,1,66.24,231.62ZM65.1,230a1.45,1.45,0,0,0-.63-.57,1.92,1.92,0,0,0-.87-.19,1.73,1.73,0,0,0-1.18.44,1.81,1.81,0,0,0-.55,1.22h3.46A1.72,1.72,0,0,0,65.1,230Z"/><path class="cls-5" d="M70.14,229.78a2.47,2.47,0,0,1,.94-1,2.79,2.79,0,0,1,1.39-.35,2.66,2.66,0,0,1,1.66.49A2.31,2.31,0,0,1,75,230.3H74a1.4,1.4,0,0,0-.55-.79,1.69,1.69,0,0,0-1-.29,1.63,1.63,0,0,0-1.26.53,2.66,2.66,0,0,0,0,3.05,1.61,1.61,0,0,0,1.26.54,1.69,1.69,0,0,0,1-.28,1.4,1.4,0,0,0,.55-.8h1a2.39,2.39,0,0,1-.88,1.34,2.62,2.62,0,0,1-1.65.51,2.79,2.79,0,0,1-1.39-.35,2.43,2.43,0,0,1-.94-1,3.13,3.13,0,0,1-.34-1.5A3.09,3.09,0,0,1,70.14,229.78Z"/><path class="cls-5" d="M76.21,229.78a2.51,2.51,0,0,1,.93-1,2.62,2.62,0,0,1,1.33-.35,2.39,2.39,0,0,1,1.25.31,2.19,2.19,0,0,1,.79.78v-1h.92V234h-.92v-1a2.12,2.12,0,0,1-.81.79,2.38,2.38,0,0,1-1.24.32,2.47,2.47,0,0,1-1.32-.36,2.6,2.6,0,0,1-.93-1,3.39,3.39,0,0,1,0-3Zm4.05.41a1.79,1.79,0,0,0-.68-.71,1.92,1.92,0,0,0-1.86,0,1.68,1.68,0,0,0-.67.7,2.48,2.48,0,0,0,0,2.17,1.7,1.7,0,0,0,.67.71,1.85,1.85,0,0,0,1.86,0,1.73,1.73,0,0,0,.68-.71,2.46,2.46,0,0,0,0-2.16Z"/><path class="cls-5" d="M87.26,229a2.36,2.36,0,0,1,.62,1.75V234H87v-3.1a1.78,1.78,0,0,0-.41-1.26,1.68,1.68,0,0,0-2.27,0,1.86,1.86,0,0,0-.42,1.31v3H83v-5.48h.91v.78a1.77,1.77,0,0,1,.73-.65,2.33,2.33,0,0,1,1-.23A2.25,2.25,0,0,1,87.26,229Z"/><path class="cls-5" d="M93,227.05v7H92v-7Z"/><path class="cls-5" d="M99.4,229.29H98.25V234h-.91v-4.73h-.71v-.75h.71v-.39a1.77,1.77,0,0,1,.47-1.35,2.29,2.29,0,0,1,1.53-.42v.76a1.22,1.22,0,0,0-.85.24,1,1,0,0,0-.24.77v.39H99.4Z"/><path class="cls-5" d="M100.49,227.47a.63.63,0,0,1,0-.88.59.59,0,0,1,.44-.18.56.56,0,0,1,.42.18.63.63,0,0,1,0,.88.56.56,0,0,1-.42.18A.59.59,0,0,1,100.49,227.47Zm.88,1.07V234h-.91v-5.48Z"/><path class="cls-5" d="M107.21,229a2.36,2.36,0,0,1,.62,1.75V234h-.9v-3.1a1.78,1.78,0,0,0-.41-1.26,1.68,1.68,0,0,0-2.27,0,1.86,1.86,0,0,0-.42,1.31v3h-.91v-5.48h.91v.78a1.77,1.77,0,0,1,.73-.65,2.33,2.33,0,0,1,1-.23A2.25,2.25,0,0,1,107.21,229Z"/><path class="cls-5" d="M109.32,229.78a2.44,2.44,0,0,1,.93-1,2.63,2.63,0,0,1,1.34-.35,2.58,2.58,0,0,1,1.19.29,2.26,2.26,0,0,1,.84.78v-2.9h.92V234h-.92v-1a2.12,2.12,0,0,1-.8.8,2.41,2.41,0,0,1-1.24.32,2.48,2.48,0,0,1-2.26-1.37,3.39,3.39,0,0,1,0-3Zm4.05.41a1.79,1.79,0,0,0-.68-.71,1.92,1.92,0,0,0-1.86,0,1.68,1.68,0,0,0-.67.7,2.48,2.48,0,0,0,0,2.17,1.7,1.7,0,0,0,.67.71,1.85,1.85,0,0,0,1.86,0,1.73,1.73,0,0,0,.68-.71,2.46,2.46,0,0,0,0-2.16Z"/></g><g class="cls-4"><path class="cls-5" d="M51.81,240.7a2,2,0,0,1,.79.8,2.67,2.67,0,0,1,.29,1.29V246H52v-3.1a1.78,1.78,0,0,0-.41-1.26,1.45,1.45,0,0,0-1.09-.43,1.48,1.48,0,0,0-1.13.45,1.9,1.9,0,0,0-.42,1.32v3H48v-3.1a1.78,1.78,0,0,0-.41-1.26,1.45,1.45,0,0,0-1.09-.43,1.46,1.46,0,0,0-1.13.45A1.9,1.9,0,0,0,45,243v3h-.91v-5.48H45v.79a1.76,1.76,0,0,1,.72-.66,2.27,2.27,0,0,1,1-.23,2.36,2.36,0,0,1,1.22.31,1.91,1.91,0,0,1,.79.91,1.77,1.77,0,0,1,.76-.9,2.27,2.27,0,0,1,1.18-.32A2.46,2.46,0,0,1,51.81,240.7Z"/><path class="cls-5" d="M59.1,240.54l-3.3,8.06h-.94L55.94,246l-2.21-5.42h1L56.46,245l1.7-4.44Z"/><path class="cls-5" d="M62.68,241.78a2.4,2.4,0,0,1,.94-1,2.79,2.79,0,0,1,1.39-.35,2.66,2.66,0,0,1,1.66.49,2.31,2.31,0,0,1,.87,1.36h-1a1.45,1.45,0,0,0-.55-.79,1.69,1.69,0,0,0-1-.29,1.63,1.63,0,0,0-1.26.53,2.66,2.66,0,0,0,0,3.05,1.61,1.61,0,0,0,1.26.54,1.69,1.69,0,0,0,1-.28,1.45,1.45,0,0,0,.55-.8h1a2.39,2.39,0,0,1-.88,1.34,2.62,2.62,0,0,1-1.65.51,2.79,2.79,0,0,1-1.39-.35,2.37,2.37,0,0,1-.94-1,3.13,3.13,0,0,1-.34-1.5A3.09,3.09,0,0,1,62.68,241.78Z"/><path class="cls-5" d="M73.61,240.54V246H72.7v-.81a1.77,1.77,0,0,1-.73.65,2.19,2.19,0,0,1-1,.24,2.41,2.41,0,0,1-1.15-.27A1.93,1.93,0,0,1,69,245a2.67,2.67,0,0,1-.29-1.29v-3.21h.9v3.09a1.75,1.75,0,0,0,.41,1.25,1.68,1.68,0,0,0,2.27,0,1.86,1.86,0,0,0,.42-1.31v-3Z"/><path class="cls-5" d="M76,245.89a1.79,1.79,0,0,1-.79-.6,1.6,1.6,0,0,1-.32-.88h.94a.9.9,0,0,0,.38.67,1.51,1.51,0,0,0,.91.26,1.35,1.35,0,0,0,.82-.23.7.7,0,0,0,.3-.58.59.59,0,0,0-.32-.54,4.78,4.78,0,0,0-1-.34,7.79,7.79,0,0,1-1-.33,1.84,1.84,0,0,1-.66-.49,1.39,1.39,0,0,1,0-1.62,1.76,1.76,0,0,1,.71-.56,2.69,2.69,0,0,1,1-.2,2.23,2.23,0,0,1,1.47.46,1.69,1.69,0,0,1,.6,1.26h-.91a.93.93,0,0,0-.35-.69,1.52,1.52,0,0,0-1.62,0,.63.63,0,0,0-.29.55.6.6,0,0,0,.17.44,1.33,1.33,0,0,0,.44.28c.18.07.42.15.74.24a10,10,0,0,1,1,.31,1.71,1.71,0,0,1,.63.47,1.26,1.26,0,0,1,.28.81,1.44,1.44,0,0,1-.25.81,1.61,1.61,0,0,1-.71.56,2.44,2.44,0,0,1-1,.21A2.71,2.71,0,0,1,76,245.89Z"/><path class="cls-5" d="M81.48,241.29v3.23a.72.72,0,0,0,.17.56.83.83,0,0,0,.59.17h.67V246h-.82a1.64,1.64,0,0,1-1.14-.35,1.48,1.48,0,0,1-.38-1.15v-3.23h-.71v-.75h.71v-1.38h.91v1.38h1.43v.75Z"/><path class="cls-5" d="M85,245.76a2.55,2.55,0,0,1-1-1,3.09,3.09,0,0,1-.35-1.49,3,3,0,0,1,.36-1.49,2.57,2.57,0,0,1,1-1,3.09,3.09,0,0,1,2.82,0,2.48,2.48,0,0,1,1,1,3.15,3.15,0,0,1,0,3,2.62,2.62,0,0,1-1,1,3,3,0,0,1-1.42.35A2.85,2.85,0,0,1,85,245.76Zm2.32-.68a1.7,1.7,0,0,0,.69-.69,2.19,2.19,0,0,0,.27-1.12,2.29,2.29,0,0,0-.26-1.12,1.74,1.74,0,0,0-.68-.69,2,2,0,0,0-1.83,0,1.63,1.63,0,0,0-.66.69,2.29,2.29,0,0,0-.25,1.12,2.42,2.42,0,0,0,.24,1.13,1.61,1.61,0,0,0,.66.68,1.83,1.83,0,0,0,.9.23A2,2,0,0,0,87.32,245.08Z"/><path class="cls-5" d="M98.14,240.7a2,2,0,0,1,.79.8,2.67,2.67,0,0,1,.29,1.29V246h-.9v-3.1a1.78,1.78,0,0,0-.41-1.26,1.45,1.45,0,0,0-1.09-.43,1.46,1.46,0,0,0-1.13.45,1.9,1.9,0,0,0-.42,1.32v3h-.9v-3.1a1.78,1.78,0,0,0-.41-1.26,1.45,1.45,0,0,0-1.09-.43,1.46,1.46,0,0,0-1.13.45,1.9,1.9,0,0,0-.42,1.32v3h-.91v-5.48h.91v.79a1.76,1.76,0,0,1,.72-.66,2.27,2.27,0,0,1,1-.23,2.36,2.36,0,0,1,1.22.31,2,2,0,0,1,.79.91,1.72,1.72,0,0,1,.76-.9,2.24,2.24,0,0,1,1.18-.32A2.52,2.52,0,0,1,98.14,240.7Z"/><path class="cls-5" d="M105.68,243.62H101.3a1.72,1.72,0,0,0,1.78,1.72,1.62,1.62,0,0,0,1-.28,1.41,1.41,0,0,0,.56-.73h1a2.35,2.35,0,0,1-.88,1.28,2.67,2.67,0,0,1-1.64.5,2.82,2.82,0,0,1-1.4-.35,2.44,2.44,0,0,1-1-1,3,3,0,0,1-.35-1.49,3.09,3.09,0,0,1,.34-1.49,2.39,2.39,0,0,1,1-1,2.84,2.84,0,0,1,1.42-.34,2.72,2.72,0,0,1,1.38.34,2.35,2.35,0,0,1,.92.93,2.75,2.75,0,0,1,.33,1.35A5.36,5.36,0,0,1,105.68,243.62ZM104.54,242a1.45,1.45,0,0,0-.63-.57,1.92,1.92,0,0,0-.87-.19,1.73,1.73,0,0,0-1.18.44,1.77,1.77,0,0,0-.55,1.22h3.46A1.72,1.72,0,0,0,104.54,242Z"/><path class="cls-5" d="M108.5,240.7a2.17,2.17,0,0,1,1.09-.26v.94h-.24c-1,0-1.53.55-1.53,1.66v3h-.91v-5.48h.91v.89A1.78,1.78,0,0,1,108.5,240.7Z"/></g><g class="cls-4"><path class="cls-5" d="M30.07,252.7a2.17,2.17,0,0,1,1.09-.26v.94h-.24c-1,0-1.53.55-1.53,1.66v3h-.91v-5.48h.91v.89A1.78,1.78,0,0,1,30.07,252.7Z"/><path class="cls-5" d="M37.18,255.62H32.8a1.72,1.72,0,0,0,1.78,1.72,1.62,1.62,0,0,0,1-.28,1.41,1.41,0,0,0,.56-.73h1a2.35,2.35,0,0,1-.88,1.28,2.67,2.67,0,0,1-1.64.5,2.82,2.82,0,0,1-1.4-.35,2.44,2.44,0,0,1-1-1,3.39,3.39,0,0,1,0-3,2.39,2.39,0,0,1,.95-1,2.87,2.87,0,0,1,1.42-.34,2.72,2.72,0,0,1,1.38.34,2.35,2.35,0,0,1,.92.93,2.75,2.75,0,0,1,.33,1.35A5.36,5.36,0,0,1,37.18,255.62ZM36,254a1.45,1.45,0,0,0-.63-.57,1.92,1.92,0,0,0-.87-.19,1.73,1.73,0,0,0-1.18.44,1.81,1.81,0,0,0-.55,1.22h3.46A1.72,1.72,0,0,0,36,254Z"/><path class="cls-5" d="M40.64,253.29H39.49V258h-.91v-4.73h-.71v-.75h.71v-.39a1.77,1.77,0,0,1,.47-1.35,2.29,2.29,0,0,1,1.53-.42v.76a1.22,1.22,0,0,0-.85.24,1,1,0,0,0-.24.77v.39h1.15Z"/><path class="cls-5" d="M46.67,255.62H42.29a1.72,1.72,0,0,0,1.78,1.72,1.62,1.62,0,0,0,1-.28,1.41,1.41,0,0,0,.56-.73h1a2.35,2.35,0,0,1-.88,1.28,2.67,2.67,0,0,1-1.64.5,2.82,2.82,0,0,1-1.4-.35,2.44,2.44,0,0,1-1-1,3.39,3.39,0,0,1,0-3,2.39,2.39,0,0,1,.95-1,2.87,2.87,0,0,1,1.42-.34,2.72,2.72,0,0,1,1.38.34,2.35,2.35,0,0,1,.92.93,2.75,2.75,0,0,1,.33,1.35A5.36,5.36,0,0,1,46.67,255.62ZM45.53,254a1.45,1.45,0,0,0-.63-.57,1.92,1.92,0,0,0-.87-.19,1.73,1.73,0,0,0-1.18.44,1.81,1.81,0,0,0-.55,1.22h3.46A1.72,1.72,0,0,0,45.53,254Z"/><path class="cls-5" d="M49.49,252.7a2.17,2.17,0,0,1,1.09-.26v.94h-.24c-1,0-1.53.55-1.53,1.66v3H47.9v-5.48h.91v.89A1.78,1.78,0,0,1,49.49,252.7Z"/><path class="cls-5" d="M56.6,255.62H52.22A1.72,1.72,0,0,0,54,257.34a1.62,1.62,0,0,0,1-.28,1.41,1.41,0,0,0,.56-.73h1a2.35,2.35,0,0,1-.88,1.28,2.67,2.67,0,0,1-1.64.5,2.82,2.82,0,0,1-1.4-.35,2.44,2.44,0,0,1-1-1,3,3,0,0,1-.35-1.49,3.09,3.09,0,0,1,.34-1.49,2.33,2.33,0,0,1,.95-1,2.84,2.84,0,0,1,1.42-.34,2.72,2.72,0,0,1,1.38.34,2.35,2.35,0,0,1,.92.93,2.75,2.75,0,0,1,.33,1.35A5.36,5.36,0,0,1,56.6,255.62ZM55.46,254a1.45,1.45,0,0,0-.63-.57,1.92,1.92,0,0,0-.87-.19,1.73,1.73,0,0,0-1.18.44,1.77,1.77,0,0,0-.55,1.22h3.46A1.72,1.72,0,0,0,55.46,254Z"/><path class="cls-5" d="M62.12,253a2.36,2.36,0,0,1,.62,1.75V258h-.9v-3.1a1.78,1.78,0,0,0-.41-1.26,1.5,1.5,0,0,0-1.12-.43,1.52,1.52,0,0,0-1.15.45,1.86,1.86,0,0,0-.42,1.31v3h-.91v-5.48h.91v.78a1.77,1.77,0,0,1,.73-.65,2.33,2.33,0,0,1,1-.23A2.22,2.22,0,0,1,62.12,253Z"/><path class="cls-5" d="M64.23,253.78a2.47,2.47,0,0,1,.94-1,2.79,2.79,0,0,1,1.39-.35,2.66,2.66,0,0,1,1.66.49,2.31,2.31,0,0,1,.87,1.36h-1a1.4,1.4,0,0,0-.55-.79,1.69,1.69,0,0,0-1-.29,1.63,1.63,0,0,0-1.26.53,2.66,2.66,0,0,0,0,3.05,1.61,1.61,0,0,0,1.26.54,1.69,1.69,0,0,0,1-.28,1.4,1.4,0,0,0,.55-.8h1a2.39,2.39,0,0,1-.88,1.34,2.62,2.62,0,0,1-1.65.51,2.79,2.79,0,0,1-1.39-.35,2.43,2.43,0,0,1-.94-1,3.13,3.13,0,0,1-.34-1.5A3.09,3.09,0,0,1,64.23,253.78Z"/><path class="cls-5" d="M75.27,255.62H70.89a1.72,1.72,0,0,0,1.78,1.72,1.62,1.62,0,0,0,1-.28,1.41,1.41,0,0,0,.56-.73h1a2.35,2.35,0,0,1-.88,1.28,2.67,2.67,0,0,1-1.64.5,2.82,2.82,0,0,1-1.4-.35,2.44,2.44,0,0,1-1-1,3,3,0,0,1-.35-1.49,3.09,3.09,0,0,1,.34-1.49,2.33,2.33,0,0,1,1-1,2.84,2.84,0,0,1,1.42-.34,2.72,2.72,0,0,1,1.38.34,2.35,2.35,0,0,1,.92.93,2.75,2.75,0,0,1,.33,1.35A5.36,5.36,0,0,1,75.27,255.62ZM74.13,254a1.45,1.45,0,0,0-.63-.57,1.92,1.92,0,0,0-.87-.19,1.73,1.73,0,0,0-1.18.44,1.77,1.77,0,0,0-.55,1.22h3.46A1.72,1.72,0,0,0,74.13,254Z"/><path class="cls-5" d="M83.46,253a2.36,2.36,0,0,1,.62,1.75V258h-.9v-3.1a1.78,1.78,0,0,0-.41-1.26,1.5,1.5,0,0,0-1.12-.43,1.52,1.52,0,0,0-1.15.45,1.86,1.86,0,0,0-.42,1.31v3h-.91v-5.48h.91v.78a1.77,1.77,0,0,1,.73-.65,2.33,2.33,0,0,1,1-.23A2.25,2.25,0,0,1,83.46,253Z"/><path class="cls-5" d="M90.43,252.54V258h-.91v-.81a1.77,1.77,0,0,1-.73.65,2.19,2.19,0,0,1-1,.24,2.41,2.41,0,0,1-1.15-.27,1.93,1.93,0,0,1-.81-.79,2.67,2.67,0,0,1-.29-1.29v-3.21h.9v3.09a1.75,1.75,0,0,0,.41,1.25,1.68,1.68,0,0,0,2.27,0,1.86,1.86,0,0,0,.42-1.31v-3Z"/><path class="cls-5" d="M99.7,252.7a2,2,0,0,1,.79.8,2.67,2.67,0,0,1,.29,1.29V258h-.9v-3.1a1.78,1.78,0,0,0-.41-1.26,1.45,1.45,0,0,0-1.09-.43,1.46,1.46,0,0,0-1.13.45,1.9,1.9,0,0,0-.42,1.32v3h-.9v-3.1a1.78,1.78,0,0,0-.41-1.26,1.45,1.45,0,0,0-1.09-.43,1.46,1.46,0,0,0-1.13.45,1.9,1.9,0,0,0-.42,1.32v3H92v-5.48h.91v.79a1.76,1.76,0,0,1,.72-.66,2.27,2.27,0,0,1,1-.23,2.36,2.36,0,0,1,1.22.31,2,2,0,0,1,.79.91,1.72,1.72,0,0,1,.76-.9,2.24,2.24,0,0,1,1.18-.32A2.52,2.52,0,0,1,99.7,252.7Z"/><path class="cls-5" d="M104,252.76a2.39,2.39,0,0,1,1.23-.31,2.59,2.59,0,0,1,1.33.35,2.51,2.51,0,0,1,.93,1,3.39,3.39,0,0,1,0,3,2.55,2.55,0,0,1-.94,1,2.47,2.47,0,0,1-1.32.36,2.42,2.42,0,0,1-1.25-.31,2.17,2.17,0,0,1-.8-.79v1h-.91v-7.4h.91v2.94A2.18,2.18,0,0,1,104,252.76Zm2.65,1.42a1.7,1.7,0,0,0-.68-.7,1.84,1.84,0,0,0-.93-.24,1.9,1.9,0,0,0-.93.24,1.86,1.86,0,0,0-.68.71,2.46,2.46,0,0,0,0,2.16,1.81,1.81,0,0,0,1.61,1,1.75,1.75,0,0,0,.93-.25,1.73,1.73,0,0,0,.68-.71,2.48,2.48,0,0,0,0-2.17Z"/><path class="cls-5" d="M114,255.62h-4.38a1.72,1.72,0,0,0,1.78,1.72,1.62,1.62,0,0,0,1-.28,1.41,1.41,0,0,0,.56-.73h1a2.35,2.35,0,0,1-.88,1.28,2.67,2.67,0,0,1-1.64.5,2.82,2.82,0,0,1-1.4-.35,2.44,2.44,0,0,1-1-1,3,3,0,0,1-.35-1.49,3.09,3.09,0,0,1,.34-1.49,2.33,2.33,0,0,1,1-1,2.84,2.84,0,0,1,1.42-.34,2.72,2.72,0,0,1,1.38.34,2.35,2.35,0,0,1,.92.93,2.75,2.75,0,0,1,.33,1.35A5.36,5.36,0,0,1,114,255.62ZM112.86,254a1.45,1.45,0,0,0-.63-.57,1.92,1.92,0,0,0-.87-.19,1.73,1.73,0,0,0-1.18.44,1.77,1.77,0,0,0-.55,1.22h3.46A1.72,1.72,0,0,0,112.86,254Z"/><path class="cls-5" d="M116.82,252.7a2.17,2.17,0,0,1,1.09-.26v.94h-.24c-1,0-1.53.55-1.53,1.66v3h-.91v-5.48h.91v.89A1.78,1.78,0,0,1,116.82,252.7Z"/><path class="cls-5" d="M122.34,251.52A2,2,0,0,1,123,253a1.84,1.84,0,0,1-.65,1.55,2.79,2.79,0,0,1-1.76.51l0,.95h-.79l0-1.58H120a3.33,3.33,0,0,0,1.55-.3,1.17,1.17,0,0,0,.56-1.13,1.26,1.26,0,0,0-.36-1,1.36,1.36,0,0,0-1-.35,1.38,1.38,0,0,0-1,.33,1.24,1.24,0,0,0-.35.92h-.86a2.06,2.06,0,0,1,.27-1.06,1.84,1.84,0,0,1,.76-.7,2.47,2.47,0,0,1,1.15-.25A2.29,2.29,0,0,1,122.34,251.52Zm-2.67,6.38a.63.63,0,0,1,0-.88.59.59,0,0,1,.44-.18.56.56,0,0,1,.42.18.63.63,0,0,1,0,.88.56.56,0,0,1-.42.18A.59.59,0,0,1,119.67,257.9Z"/></g><path class="cls-6" d="M310.27,70.36c-20.11-9.66-46.9-8.17-63.56,7.61a47.06,47.06,0,0,0-14.36,28.87c-1.23,12.78,2.89,25,4.1,37.6a53,53,0,0,1-1.78,19.09c-1.2,4.34-3.35,8.21-5.31,12.18a.94.94,0,0,0,1.39,1.18c1.16-.83,2.37-1.59,3.5-2.39a49.62,49.62,0,0,1,8.54-4.78c19.26-8.57,39.79-.7,59.79-3.91,19.76-3.18,32.32-20.65,35.88-39.36,3.79-19.91-4.33-40.75-21.26-52.13A55.66,55.66,0,0,0,310.27,70.36Z"/><path class="cls-2" d="M206.38,130.42c-11.92-12.82-31-19.07-48.15-18.27-22.43,1-40.32,17.51-44.14,39.52a48.58,48.58,0,0,0,.21,17.83c2.16,10.71,8,21.07,15.51,29,4.31,4.55,9.85,8.31,14.57,12.47,5.94,5.24,12.41,10.2,16.88,16.84a27.1,27.1,0,0,1,4.19,9.7,1.46,1.46,0,0,0,2.62.56c.15-.21.28-.41.41-.61q2.07-3.21,4.3-6.32a103.7,103.7,0,0,1,13.52-15.76c5-4.65,10.39-8.93,15.29-13.7,15.57-15.16,21.84-39.7,12.5-59.84A44,44,0,0,0,206.38,130.42Z"/><rect class="cls-3" x="122" y="142.9" width="87.9" height="40.7"/><g class="cls-4"><g class="cls-4"><path class="cls-5" d="M141,143.47v8.38h-1.68v-8.38Z"/><path class="cls-5" d="M150.56,145.43a2.33,2.33,0,0,1,.92,1,3.36,3.36,0,0,1,.33,1.54v3.91h-1.68v-3.68a1.68,1.68,0,0,0-.4-1.21,1.37,1.37,0,0,0-1.08-.43,1.43,1.43,0,0,0-1.1.43,1.73,1.73,0,0,0-.4,1.21v3.68h-1.68V143h1.68V146a2.26,2.26,0,0,1,.87-.67,2.77,2.77,0,0,1,1.2-.25A2.69,2.69,0,0,1,150.56,145.43Z"/><path class="cls-5" d="M153.37,146.71a3,3,0,0,1,1.1-1.2,2.9,2.9,0,0,1,1.54-.42,2.71,2.71,0,0,1,1.3.3,2.55,2.55,0,0,1,.89.76v-1h1.7v6.65h-1.7v-1a2.43,2.43,0,0,1-.89.78,3,3,0,0,1-2.84-.13,3,3,0,0,1-1.1-1.22,4.23,4.23,0,0,1,0-3.59Zm4.59.76a1.72,1.72,0,0,0-.64-.67,1.74,1.74,0,0,0-.88-.24,1.7,1.7,0,0,0-.86.23,1.75,1.75,0,0,0-.65.67,2.13,2.13,0,0,0-.24,1,2.2,2.2,0,0,0,.24,1.05,1.81,1.81,0,0,0,.65.69,1.67,1.67,0,0,0,.86.24,1.74,1.74,0,0,0,.88-.24,1.66,1.66,0,0,0,.64-.67,2.42,2.42,0,0,0,0-2.1Z"/><path class="cls-5" d="M164.31,150.3l1.68-5.1h1.79l-2.46,6.65h-2l-2.45-6.65h1.8Z"/><path class="cls-5" d="M174.86,149H170a1.66,1.66,0,0,0,.5,1.13,1.53,1.53,0,0,0,1.1.41,1.38,1.38,0,0,0,1.33-.8h1.81a3.07,3.07,0,0,1-1.1,1.58,3.27,3.27,0,0,1-2,.61,3.51,3.51,0,0,1-1.72-.42,3.08,3.08,0,0,1-1.19-1.21,4.09,4.09,0,0,1,0-3.61,2.94,2.94,0,0,1,1.17-1.2,3.77,3.77,0,0,1,3.44,0,2.85,2.85,0,0,1,1.16,1.15,3.52,3.52,0,0,1,.42,1.73A4.06,4.06,0,0,1,174.86,149Zm-1.69-1.12a1.36,1.36,0,0,0-.47-1,1.66,1.66,0,0,0-1.12-.39,1.56,1.56,0,0,0-1.05.38,1.7,1.7,0,0,0-.52,1.05Z"/><path class="cls-5" d="M184.59,145.85a2.86,2.86,0,0,1,.73,2.09v3.91h-1.68v-3.68a1.73,1.73,0,0,0-.39-1.21,1.4,1.4,0,0,0-1.08-.43,1.42,1.42,0,0,0-1.1.43,1.68,1.68,0,0,0-.4,1.21v3.68H179V145.2h1.68V146a2.3,2.3,0,0,1,.86-.67,2.51,2.51,0,0,1,1.14-.25A2.57,2.57,0,0,1,184.59,145.85Z"/><path class="cls-5" d="M188.14,151.53a3.1,3.1,0,0,1-1.2-1.21,3.86,3.86,0,0,1,0-3.6,3.09,3.09,0,0,1,1.23-1.2,3.74,3.74,0,0,1,3.48,0,3.09,3.09,0,0,1,1.23,1.2,3.79,3.79,0,0,1,0,3.6,3.3,3.3,0,0,1-1.25,1.21,3.66,3.66,0,0,1-1.76.42A3.57,3.57,0,0,1,188.14,151.53Zm2.59-1.26a1.6,1.6,0,0,0,.64-.67,2.21,2.21,0,0,0,.24-1.08,2,2,0,0,0-.5-1.46,1.69,1.69,0,0,0-2.42,0,2.44,2.44,0,0,0,0,2.92,1.54,1.54,0,0,0,1.19.51A1.75,1.75,0,0,0,190.73,150.27Z"/></g><g class="cls-4"><path class="cls-5" d="M140.2,159.6l-1.95,6.65h-1.81l-1.21-4.65L134,166.25h-1.83l-1.95-6.65h1.7l1.18,5.06,1.27-5.06h1.77l1.25,5.05,1.18-5.05Z"/><path class="cls-5" d="M141.08,161.11a3,3,0,0,1,1.09-1.2,2.9,2.9,0,0,1,1.54-.42,2.7,2.7,0,0,1,2.2,1v-.94h1.69v6.65h-1.69v-1a2.65,2.65,0,0,1-.9.78,2.75,2.75,0,0,1-1.31.3,2.81,2.81,0,0,1-1.53-.43,3,3,0,0,1-1.09-1.22,4.23,4.23,0,0,1,0-3.59Zm4.59.76a1.75,1.75,0,0,0-.65-.67,1.73,1.73,0,0,0-1.74,0,1.72,1.72,0,0,0-.64.67,2,2,0,0,0-.25,1,2.09,2.09,0,0,0,.25,1,1.73,1.73,0,0,0,.65.69,1.61,1.61,0,0,0,.85.24,1.75,1.75,0,0,0,1.53-.91,2.42,2.42,0,0,0,0-2.1Z"/><path class="cls-5" d="M151.2,161v3.21a.63.63,0,0,0,.16.49.8.8,0,0,0,.55.15h.78v1.42h-1.06a1.85,1.85,0,0,1-2.12-2.07V161h-.8V159.6h.8V158h1.69v1.65h1.49V161Z"/><path class="cls-5" d="M160,163.42h-4.86a1.62,1.62,0,0,0,.51,1.13,1.51,1.51,0,0,0,1.09.41,1.37,1.37,0,0,0,1.33-.8h1.81a3.07,3.07,0,0,1-1.1,1.58,3.24,3.24,0,0,1-2,.61,3.51,3.51,0,0,1-1.72-.42,3.08,3.08,0,0,1-1.19-1.21,4.09,4.09,0,0,1,0-3.61,2.94,2.94,0,0,1,1.17-1.2,3.56,3.56,0,0,1,1.74-.42,3.4,3.4,0,0,1,1.7.41,2.94,2.94,0,0,1,1.17,1.15,3.62,3.62,0,0,1,.41,1.73A4.06,4.06,0,0,1,160,163.42Zm-1.69-1.12a1.33,1.33,0,0,0-.47-1,1.64,1.64,0,0,0-1.11-.39,1.52,1.52,0,0,0-1,.38,1.66,1.66,0,0,0-.53,1.05Z"/><path class="cls-5" d="M163.83,159.8a2.36,2.36,0,0,1,1.19-.3v1.76h-.44a1.67,1.67,0,0,0-1.19.38,1.69,1.69,0,0,0-.41,1.29v3.32H161.3V159.6H163v1A2.41,2.41,0,0,1,163.83,159.8Z"/><path class="cls-5" d="M169.12,158.52a1,1,0,0,1,0-1.4,1,1,0,0,1,.74-.28,1,1,0,0,1,.74.28,1,1,0,0,1,0,1.4,1,1,0,0,1-.74.28A1,1,0,0,1,169.12,158.52Zm1.57,1.08v6.65H169V159.6Z"/><path class="cls-5" d="M178,160.25a2.9,2.9,0,0,1,.73,2.09v3.91H177v-3.68a1.67,1.67,0,0,0-.4-1.21,1.37,1.37,0,0,0-1.08-.43,1.43,1.43,0,0,0-1.1.43,1.71,1.71,0,0,0-.4,1.21v3.68h-1.68V159.6H174v.82a2.38,2.38,0,0,1,.86-.67,2.81,2.81,0,0,1,3.07.5Z"/><path class="cls-5" d="M193.36,160.25a2.83,2.83,0,0,1,.75,2.09v3.91h-1.68v-3.68a1.67,1.67,0,0,0-.39-1.19,1.61,1.61,0,0,0-2.17,0,1.63,1.63,0,0,0-.4,1.19v3.68h-1.68v-3.68a1.63,1.63,0,0,0-.4-1.19,1.4,1.4,0,0,0-1.08-.42,1.46,1.46,0,0,0-1.1.42,1.68,1.68,0,0,0-.4,1.19v3.68h-1.68V159.6h1.68v.8a2.25,2.25,0,0,1,.83-.66,2.66,2.66,0,0,1,1.13-.24,2.88,2.88,0,0,1,1.39.33,2.39,2.39,0,0,1,1,.94,2.38,2.38,0,0,1,.94-.92,2.71,2.71,0,0,1,1.34-.35A2.67,2.67,0,0,1,193.36,160.25Z"/><path class="cls-5" d="M202.07,159.6,198,169.39h-1.79l1.44-3.31-2.66-6.48h1.88l1.72,4.64,1.74-4.64Z"/></g><g class="cls-4"><path class="cls-5" d="M143.65,174.2a2.67,2.67,0,0,1,1.31-.31,2.92,2.92,0,0,1,1.54.42,3,3,0,0,1,1.09,1.19,4.25,4.25,0,0,1,0,3.6,3,3,0,0,1-1.09,1.22,2.84,2.84,0,0,1-1.54.43,2.67,2.67,0,0,1-1.29-.3,2.72,2.72,0,0,1-.91-.75v4.11h-1.68V174h1.68v1A2.47,2.47,0,0,1,143.65,174.2Zm2.38,2.06a1.68,1.68,0,0,0-1.52-.89,1.66,1.66,0,0,0-.86.23,1.75,1.75,0,0,0-.64.68,2,2,0,0,0-.25,1,2.09,2.09,0,0,0,.25,1.05,1.72,1.72,0,0,0,.64.67,1.68,1.68,0,0,0,1.73,0,1.73,1.73,0,0,0,.65-.69,2.31,2.31,0,0,0,0-2.09Z"/><path class="cls-5" d="M151.74,174.2a2.38,2.38,0,0,1,1.2-.3v1.77h-.45a1.66,1.66,0,0,0-1.19.37,1.7,1.7,0,0,0-.4,1.29v3.32h-1.68V174h1.68v1A2.3,2.3,0,0,1,151.74,174.2Z"/><path class="cls-5" d="M155.29,180.33a3.13,3.13,0,0,1-1.21-1.21,3.64,3.64,0,0,1-.44-1.8,3.54,3.54,0,0,1,.45-1.8,3.09,3.09,0,0,1,1.23-1.2,3.74,3.74,0,0,1,3.48,0,3.09,3.09,0,0,1,1.23,1.2,3.54,3.54,0,0,1,.45,1.8,3.44,3.44,0,0,1-.46,1.8,3.23,3.23,0,0,1-1.25,1.21,3.65,3.65,0,0,1-1.75.42A3.54,3.54,0,0,1,155.29,180.33Zm2.58-1.26a1.62,1.62,0,0,0,.65-.67,2.21,2.21,0,0,0,.24-1.08,2,2,0,0,0-.5-1.46,1.64,1.64,0,0,0-1.22-.51,1.62,1.62,0,0,0-1.21.51,2.06,2.06,0,0,0-.48,1.46,2.1,2.1,0,0,0,.47,1.46,1.58,1.58,0,0,0,1.2.51A1.68,1.68,0,0,0,157.87,179.07Z"/><path class="cls-5" d="M164.29,174.2a2.67,2.67,0,0,1,1.31-.31,2.92,2.92,0,0,1,1.54.42,3,3,0,0,1,1.09,1.19,4.25,4.25,0,0,1,0,3.6,3,3,0,0,1-1.09,1.22,2.84,2.84,0,0,1-1.54.43,2.67,2.67,0,0,1-1.29-.3,2.72,2.72,0,0,1-.91-.75v4.11h-1.68V174h1.68v1A2.47,2.47,0,0,1,164.29,174.2Zm2.38,2.06a1.82,1.82,0,0,0-.65-.67,1.76,1.76,0,0,0-.87-.22,1.66,1.66,0,0,0-.86.23,1.68,1.68,0,0,0-.64.68,2,2,0,0,0-.25,1,2.09,2.09,0,0,0,.25,1.05,1.72,1.72,0,0,0,1.5.91A1.68,1.68,0,0,0,166,179a1.81,1.81,0,0,0,.65-.69,2.31,2.31,0,0,0,0-2.09Z"/><path class="cls-5" d="M176,177.83h-4.86a1.61,1.61,0,0,0,.5,1.12,1.53,1.53,0,0,0,1.09.41,1.37,1.37,0,0,0,1.33-.8h1.82a3.09,3.09,0,0,1-1.11,1.58,3.22,3.22,0,0,1-2,.61,3.48,3.48,0,0,1-1.72-.42,3,3,0,0,1-1.19-1.21,3.63,3.63,0,0,1-.43-1.8,3.75,3.75,0,0,1,.42-1.81,2.9,2.9,0,0,1,1.18-1.2,3.77,3.77,0,0,1,3.44,0,2.88,2.88,0,0,1,1.16,1.16,3.45,3.45,0,0,1,.42,1.72A4.29,4.29,0,0,1,176,177.83Zm-1.7-1.13a1.32,1.32,0,0,0-.46-1,1.68,1.68,0,0,0-1.12-.39,1.52,1.52,0,0,0-1.05.38,1.65,1.65,0,0,0-.52,1Z"/><path class="cls-5" d="M179.79,174.2a2.31,2.31,0,0,1,1.19-.3v1.77h-.44a1.4,1.4,0,0,0-1.6,1.66v3.32h-1.68V174h1.68v1A2.41,2.41,0,0,1,179.79,174.2Z"/><path class="cls-5" d="M184.06,175.38v3.21a.67.67,0,0,0,.16.49.8.8,0,0,0,.55.15h.78v1.42H184.5a1.86,1.86,0,0,1-2.13-2.07v-3.2h-.79V174h.79v-1.65h1.69V174h1.49v1.38Z"/><path class="cls-5" d="M193.12,174,189,183.79h-1.79l1.44-3.31L186,174h1.88l1.71,4.64,1.74-4.64Z"/></g></g><rect class="cls-3" x="238.8" y="102.9" width="94.9" height="31.9"/><g class="cls-4"><g class="cls-4"><path class="cls-5" d="M247.2,105.68a4.41,4.41,0,0,1,1.68-1.64,4.64,4.64,0,0,1,2.32-.6,4.75,4.75,0,0,1,2.57.71,4,4,0,0,1,1.63,2h-1.78a2.43,2.43,0,0,0-1-1.07,2.9,2.9,0,0,0-1.44-.35,3.15,3.15,0,0,0-1.6.41,2.84,2.84,0,0,0-1.1,1.15,3.8,3.8,0,0,0-.39,1.76,3.73,3.73,0,0,0,.39,1.75,2.89,2.89,0,0,0,1.1,1.17,3.15,3.15,0,0,0,1.6.41,2.9,2.9,0,0,0,1.44-.35,2.43,2.43,0,0,0,1-1.07h1.78a4,4,0,0,1-1.63,2,4.74,4.74,0,0,1-2.57.7,4.64,4.64,0,0,1-2.33-.59,4.45,4.45,0,0,1-1.67-1.64,4.95,4.95,0,0,1,0-4.76Z"/><path class="cls-5" d="M257.08,107.07a3.26,3.26,0,0,1,2.93-1.75,3.14,3.14,0,0,1,1.48.33,3,3,0,0,1,1,.82v-1H264v7.17H262.5v-1.07a3,3,0,0,1-1,.85,3.22,3.22,0,0,1-1.48.33,3.19,3.19,0,0,1-1.69-.47,3.41,3.41,0,0,1-1.22-1.33,4.07,4.07,0,0,1-.45-1.93A3.93,3.93,0,0,1,257.08,107.07Zm5.11.65a2.13,2.13,0,0,0-.8-.83,2.09,2.09,0,0,0-1.06-.29,2.22,2.22,0,0,0-1.07.28,2.18,2.18,0,0,0-.8.82,2.6,2.6,0,0,0-.3,1.28,2.68,2.68,0,0,0,.3,1.3,2.14,2.14,0,0,0,.81.85,2,2,0,0,0,1.06.3,2.11,2.11,0,0,0,1.86-1.13,2.57,2.57,0,0,0,.31-1.29A2.52,2.52,0,0,0,262.19,107.72Z"/><path class="cls-5" d="M271.07,105.67a2.45,2.45,0,0,1,1.05,1,3.42,3.42,0,0,1,.37,1.66v4.23H271v-4a2,2,0,0,0-.49-1.47,1.67,1.67,0,0,0-1.31-.52,1.73,1.73,0,0,0-1.32.52,2.07,2.07,0,0,0-.49,1.47v4h-1.48v-7.17h1.48v.82a2.69,2.69,0,0,1,.93-.69,3.07,3.07,0,0,1,1.21-.24A3.14,3.14,0,0,1,271.07,105.67Z"/><path class="cls-5" d="M279.24,103.56v9h-1.48v-9Z"/><path class="cls-5" d="M289.74,105.67a2.42,2.42,0,0,1,1,1,3.42,3.42,0,0,1,.37,1.66v4.23h-1.47v-4a2.07,2.07,0,0,0-.48-1.47,1.69,1.69,0,0,0-1.31-.52,1.73,1.73,0,0,0-1.32.52,2.07,2.07,0,0,0-.49,1.47v4h-1.48V103h1.48v3.28a2.54,2.54,0,0,1,1-.7,3.27,3.27,0,0,1,1.27-.24A3,3,0,0,1,289.74,105.67Z"/><path class="cls-5" d="M293,107.07a3.26,3.26,0,0,1,2.93-1.75,3.14,3.14,0,0,1,1.48.33,3,3,0,0,1,1,.82v-1h1.49v7.17h-1.49v-1.07a3,3,0,0,1-1,.85,3.22,3.22,0,0,1-1.48.33,3.19,3.19,0,0,1-1.69-.47,3.41,3.41,0,0,1-1.22-1.33,4.07,4.07,0,0,1-.45-1.93A3.93,3.93,0,0,1,293,107.07Zm5.11.65a2.13,2.13,0,0,0-.8-.83,2.09,2.09,0,0,0-1.06-.29,2.19,2.19,0,0,0-1.07.28,2.1,2.1,0,0,0-.8.82A2.6,2.6,0,0,0,294,109a2.68,2.68,0,0,0,.3,1.3,2.08,2.08,0,0,0,.81.85,2,2,0,0,0,1.06.3,2.11,2.11,0,0,0,1.86-1.13,2.57,2.57,0,0,0,.31-1.29A2.52,2.52,0,0,0,298.07,107.72Z"/><path class="cls-5" d="M304.59,111.27l2-5.84h1.57l-2.73,7.17h-1.77L301,105.43h1.58Z"/><path class="cls-5" d="M315.82,109.57h-5.47a2,2,0,0,0,.64,1.37,2,2,0,0,0,1.4.52,1.73,1.73,0,0,0,1.69-1h1.6a3.24,3.24,0,0,1-1.18,1.62,3.43,3.43,0,0,1-2.11.63,3.64,3.64,0,0,1-1.84-.46,3.24,3.24,0,0,1-1.27-1.3,4,4,0,0,1-.46-1.94,4.06,4.06,0,0,1,.44-2,3.1,3.1,0,0,1,1.27-1.29,3.77,3.77,0,0,1,1.86-.45,3.6,3.6,0,0,1,1.81.44,3.06,3.06,0,0,1,1.23,1.24,3.69,3.69,0,0,1,.45,1.84A4.07,4.07,0,0,1,315.82,109.57Zm-1.49-1.2a1.69,1.69,0,0,0-.59-1.31,2.08,2.08,0,0,0-1.41-.5,1.94,1.94,0,0,0-1.32.49,2.08,2.08,0,0,0-.65,1.32Z"/><path class="cls-5" d="M320.67,107.07a3.16,3.16,0,0,1,1.22-1.29,3.22,3.22,0,0,1,1.71-.46,3.12,3.12,0,0,1,1.47.33,3,3,0,0,1,1,.82v-1h1.49v7.17h-1.49v-1.07a2.92,2.92,0,0,1-1,.85,3.37,3.37,0,0,1-3.17-.14,3.32,3.32,0,0,1-1.21-1.33,4.07,4.07,0,0,1-.45-1.93A3.93,3.93,0,0,1,320.67,107.07Zm5.1.65a2.13,2.13,0,0,0-.8-.83,2.06,2.06,0,0,0-1.06-.29,2.22,2.22,0,0,0-1.07.28,2.18,2.18,0,0,0-.8.82,2.6,2.6,0,0,0-.3,1.28,2.68,2.68,0,0,0,.3,1.3,2.22,2.22,0,0,0,.81.85,2,2,0,0,0,1.06.3,2.06,2.06,0,0,0,1.06-.29,2.09,2.09,0,0,0,.8-.84,2.57,2.57,0,0,0,.31-1.29A2.52,2.52,0,0,0,325.77,107.72Z"/></g><g class="cls-4"><path class="cls-5" d="M242.93,122.66a3.17,3.17,0,0,1,1.25-1.29,4,4,0,0,1,4,.16,3.08,3.08,0,0,1,1.15,1.76h-1.6a1.7,1.7,0,0,0-.63-.83,2,2,0,0,0-2.52.35,3.27,3.27,0,0,0,0,3.6,1.76,1.76,0,0,0,1.45.65,1.64,1.64,0,0,0,1.7-1.13h1.6a3.23,3.23,0,0,1-1.17,1.74,3.43,3.43,0,0,1-2.13.64,3.52,3.52,0,0,1-1.82-.46,3.26,3.26,0,0,1-1.25-1.3,4.52,4.52,0,0,1,0-3.89Z"/><path class="cls-5" d="M252.05,127.85a3.33,3.33,0,0,1-1.28-1.3,4,4,0,0,1-.47-1.94,3.85,3.85,0,0,1,.48-1.94,3.34,3.34,0,0,1,1.31-1.3,3.88,3.88,0,0,1,1.86-.45,3.82,3.82,0,0,1,1.86.45,3.28,3.28,0,0,1,1.31,1.3,3.85,3.85,0,0,1,.48,1.94,3.72,3.72,0,0,1-.49,1.93,3.44,3.44,0,0,1-1.34,1.31,3.88,3.88,0,0,1-1.88.46A3.67,3.67,0,0,1,252.05,127.85Zm2.91-1.1a2.06,2.06,0,0,0,.81-.82,2.58,2.58,0,0,0,.31-1.32,2.8,2.8,0,0,0-.29-1.32,2,2,0,0,0-.8-.81,2.08,2.08,0,0,0-1.06-.28,2,2,0,0,0-1.06.28,1.91,1.91,0,0,0-.78.81,2.8,2.8,0,0,0-.28,1.32,2.5,2.5,0,0,0,.59,1.79,2,2,0,0,0,1.49.63A2.14,2.14,0,0,0,255,126.75Z"/><path class="cls-5" d="M265.56,121v7.17h-1.48v-.85a2.4,2.4,0,0,1-.92.7,2.87,2.87,0,0,1-1.2.25,3.23,3.23,0,0,1-1.51-.35,2.59,2.59,0,0,1-1.06-1,3.44,3.44,0,0,1-.38-1.67V121h1.47v4a2.08,2.08,0,0,0,.48,1.48,2,2,0,0,0,2.63,0,2,2,0,0,0,.49-1.48v-4Z"/><path class="cls-5" d="M269.86,121.22a2.58,2.58,0,0,1,1.28-.3v1.53h-.38a1.83,1.83,0,0,0-1.32.44,2.13,2.13,0,0,0-.45,1.54v3.77h-1.48V121H269v1A2.44,2.44,0,0,1,269.86,121.22Z"/><path class="cls-5" d="M274.23,122.24v4a.75.75,0,0,0,.19.58,1,1,0,0,0,.64.17H276v1.24H274.8a2.26,2.26,0,0,1-1.53-.47,1.91,1.91,0,0,1-.53-1.52v-4h-.85V121h.85v-1.78h1.49V121H276v1.21Z"/><path class="cls-5" d="M283.85,125.17h-5.47a1.92,1.92,0,0,0,.64,1.37,2,2,0,0,0,1.4.52,1.73,1.73,0,0,0,1.69-1h1.6a3.24,3.24,0,0,1-1.18,1.62,3.45,3.45,0,0,1-2.11.63,3.62,3.62,0,0,1-1.84-.46,3.24,3.24,0,0,1-1.27-1.3,4,4,0,0,1-.47-1.94,4.07,4.07,0,0,1,.45-2,3.13,3.13,0,0,1,1.26-1.29,3.83,3.83,0,0,1,1.87-.45,3.6,3.6,0,0,1,1.81.44,3.12,3.12,0,0,1,1.23,1.24,3.68,3.68,0,0,1,.44,1.84A4.12,4.12,0,0,1,283.85,125.17Zm-1.49-1.2a1.69,1.69,0,0,0-.59-1.31,2.09,2.09,0,0,0-1.42-.5,1.93,1.93,0,0,0-1.31.49,2.08,2.08,0,0,0-.65,1.32Z"/><path class="cls-5" d="M286.44,128a2.77,2.77,0,0,1-1.06-.83A2.13,2.13,0,0,1,285,126h1.53a1,1,0,0,0,.44.76,1.58,1.58,0,0,0,1,.3,1.67,1.67,0,0,0,1-.24.72.72,0,0,0,.35-.61.63.63,0,0,0-.39-.6,7.41,7.41,0,0,0-1.21-.43,12.13,12.13,0,0,1-1.32-.43,2.27,2.27,0,0,1-.87-.64,1.64,1.64,0,0,1-.37-1.13,1.76,1.76,0,0,1,.33-1,2.25,2.25,0,0,1,1-.75,3.68,3.68,0,0,1,1.45-.27,3,3,0,0,1,2,.61,2.21,2.21,0,0,1,.8,1.69h-1.48a1.09,1.09,0,0,0-.39-.77,1.48,1.48,0,0,0-.95-.29,1.53,1.53,0,0,0-.9.23.66.66,0,0,0-.31.58.63.63,0,0,0,.21.48,1.62,1.62,0,0,0,.51.31l.88.28a7.67,7.67,0,0,1,1.28.42,2.31,2.31,0,0,1,.86.63,1.63,1.63,0,0,1,.38,1.1,1.84,1.84,0,0,1-.34,1.1,2.19,2.19,0,0,1-.95.75,3.61,3.61,0,0,1-1.45.27A3.72,3.72,0,0,1,286.44,128Z"/><path class="cls-5" d="M298.75,121l-4.39,10.53h-1.54l1.46-3.48L291.46,121h1.65l2,5.46,2.09-5.46Z"/><path class="cls-5" d="M303.2,122.66a3.15,3.15,0,0,1,1.24-1.29,3.64,3.64,0,0,1,1.82-.45,3.55,3.55,0,0,1,2.15.61,3,3,0,0,1,1.15,1.76H308a1.63,1.63,0,0,0-.62-.83,2,2,0,0,0-2.53.35,3.27,3.27,0,0,0,0,3.6,1.78,1.78,0,0,0,1.45.65,1.63,1.63,0,0,0,1.7-1.13h1.6a3.13,3.13,0,0,1-1.17,1.74,3.43,3.43,0,0,1-2.13.64,3.54,3.54,0,0,1-1.82-.46,3.24,3.24,0,0,1-1.24-1.3,4.43,4.43,0,0,1,0-3.89Z"/><path class="cls-5" d="M311,122.67a3.37,3.37,0,0,1,1.22-1.29,3.27,3.27,0,0,1,1.71-.46,3.14,3.14,0,0,1,1.48.33,3.06,3.06,0,0,1,1,.82v-1h1.49v7.17h-1.49v-1.07a3.11,3.11,0,0,1-1,.85,3.22,3.22,0,0,1-1.48.33,3.19,3.19,0,0,1-1.69-.47,3.41,3.41,0,0,1-1.22-1.33,4.07,4.07,0,0,1-.45-1.93A4,4,0,0,1,311,122.67Zm5.11.65a2.13,2.13,0,0,0-.8-.83,2.1,2.1,0,0,0-1.07-.29,2.18,2.18,0,0,0-1.06.28,2.1,2.1,0,0,0-.8.82,2.61,2.61,0,0,0-.31,1.28,2.69,2.69,0,0,0,.31,1.3,2.08,2.08,0,0,0,.81.85,2,2,0,0,0,1.05.3,2.11,2.11,0,0,0,1.87-1.13,2.67,2.67,0,0,0,.31-1.29A2.65,2.65,0,0,0,316.11,123.32Z"/><path class="cls-5" d="M322.21,121.22a2.58,2.58,0,0,1,1.28-.3v1.53h-.38a1.83,1.83,0,0,0-1.32.44,2.13,2.13,0,0,0-.45,1.54v3.77h-1.48V121h1.48v1A2.44,2.44,0,0,1,322.21,121.22Z"/><path class="cls-5" d="M329.41,119.76a2.56,2.56,0,0,1,.8,2,2.38,2.38,0,0,1-.83,2,3.43,3.43,0,0,1-2.21.67l-.06,1h-1.28l-.07-2h.43a4.3,4.3,0,0,0,1.93-.34,1.29,1.29,0,0,0,.67-1.28,1.43,1.43,0,0,0-.4-1.08,1.48,1.48,0,0,0-1.09-.39,1.53,1.53,0,0,0-1.11.38,1.36,1.36,0,0,0-.4,1H324.4a2.69,2.69,0,0,1,.35-1.39,2.32,2.32,0,0,1,1-.95,3.19,3.19,0,0,1,1.52-.34A3,3,0,0,1,329.41,119.76ZM325.78,128a.88.88,0,0,1-.28-.67.95.95,0,1,1,1.89,0,.94.94,0,0,1-1.61.67Z"/></g></g><path class="cls-6" d="M43.62,84.25c19.75-7.47,44.52-3.45,58.43,13.35a43.7,43.7,0,0,1,9.55,31.06c-.75,10.17-4.93,19.88-6.66,30-1.59,9.22.07,18.12,3.78,26.47a.87.87,0,0,1-1.35,1,22.83,22.83,0,0,0-4.68-3.3,75.68,75.68,0,0,0-9.35-3.52,95.82,95.82,0,0,0-22.56-4.43c-10.43-.84-21.43-.22-31.44-3.74-21-7.37-29.29-32.28-25.59-52.66a44.18,44.18,0,0,1,10-20.58A48.9,48.9,0,0,1,43.62,84.25Z"/><rect class="cls-3" x="22.9" y="116.9" width="80.9" height="31.9"/><g class="cls-4"><g class="cls-4"><path class="cls-5" d="M30.42,117.37v7h-.91v-3.16H26v3.16h-.91v-7H26v3.06h3.55v-3.06Z"/><path class="cls-5" d="M33,124.08a2.46,2.46,0,0,1-1-1,3,3,0,0,1-.35-1.5,3,3,0,0,1,.36-1.48,2.51,2.51,0,0,1,1-1,3,3,0,0,1,2.82,0,2.52,2.52,0,0,1,1,1,3,3,0,0,1,.37,1.49,2.93,2.93,0,0,1-.38,1.5,2.6,2.6,0,0,1-1,1,2.85,2.85,0,0,1-1.42.35A2.75,2.75,0,0,1,33,124.08Zm2.32-.68a1.76,1.76,0,0,0,.69-.69,2.16,2.16,0,0,0,.27-1.12,2.29,2.29,0,0,0-.26-1.12,1.78,1.78,0,0,0-.68-.68,1.94,1.94,0,0,0-1.83,0,1.61,1.61,0,0,0-.66.68,2.29,2.29,0,0,0-.25,1.12,2.39,2.39,0,0,0,.24,1.13,1.58,1.58,0,0,0,.66.69,1.82,1.82,0,0,0,.9.22A1.88,1.88,0,0,0,35.28,123.4Z"/><path class="cls-5" d="M45.67,118.86,44,124.34H43L41.7,120l-1.32,4.35h-.94l-1.72-5.48h.93l1.26,4.6,1.36-4.6h.93l1.33,4.61,1.24-4.61Z"/><path class="cls-5" d="M49.24,120.11a2.46,2.46,0,0,1,.93-1,2.63,2.63,0,0,1,1.34-.35,2.47,2.47,0,0,1,1.19.3,2.24,2.24,0,0,1,.84.77v-2.9h.92v7.4h-.92v-1a2.14,2.14,0,0,1-.8.81,2.4,2.4,0,0,1-1.24.31,2.53,2.53,0,0,1-1.33-.36,2.4,2.4,0,0,1-.93-1,3.08,3.08,0,0,1-.34-1.48A3,3,0,0,1,49.24,120.11Zm4,.4a1.86,1.86,0,0,0-2.54-.71,1.74,1.74,0,0,0-.67.7,2.21,2.21,0,0,0-.25,1.08,2.26,2.26,0,0,0,.25,1.1,1.7,1.7,0,0,0,.67.71,1.92,1.92,0,0,0,1.86,0,1.79,1.79,0,0,0,.68-.71,2.48,2.48,0,0,0,0-2.17Z"/><path class="cls-5" d="M57,124.08a2.46,2.46,0,0,1-1-1,3,3,0,0,1-.35-1.5,3,3,0,0,1,.36-1.48,2.51,2.51,0,0,1,1-1,2.89,2.89,0,0,1,1.41-.35,2.82,2.82,0,0,1,1.4.35,2.55,2.55,0,0,1,1,1,3,3,0,0,1,.37,1.49,2.93,2.93,0,0,1-.38,1.5,2.6,2.6,0,0,1-1,1,2.85,2.85,0,0,1-1.42.35A2.75,2.75,0,0,1,57,124.08Zm2.32-.68a1.76,1.76,0,0,0,.69-.69,2.16,2.16,0,0,0,.27-1.12,2.19,2.19,0,0,0-.27-1.12,1.75,1.75,0,0,0-.67-.68,2,2,0,0,0-.91-.23,1.9,1.9,0,0,0-.92.23,1.69,1.69,0,0,0-.67.68,2.66,2.66,0,0,0,0,2.25,1.61,1.61,0,0,0,.65.69,2,2,0,0,0,1.83,0Z"/><path class="cls-5" d="M66,117.37v7h-.92v-7Z"/><path class="cls-5" d="M71,124.22a1.91,1.91,0,0,1-.79-.6,1.62,1.62,0,0,1-.31-.89h.93a.92.92,0,0,0,.39.67,1.42,1.42,0,0,0,.9.26,1.27,1.27,0,0,0,.82-.23.67.67,0,0,0,.3-.58.56.56,0,0,0-.32-.53,4.49,4.49,0,0,0-1-.35,6.81,6.81,0,0,1-1-.32,1.68,1.68,0,0,1-.66-.49,1.31,1.31,0,0,1-.28-.86,1.36,1.36,0,0,1,.25-.77A1.81,1.81,0,0,1,71,119a2.52,2.52,0,0,1,1.05-.21,2.27,2.27,0,0,1,1.47.46,1.63,1.63,0,0,1,.6,1.26h-.91a1,1,0,0,0-.34-.69,1.31,1.31,0,0,0-.85-.26,1.33,1.33,0,0,0-.78.21.66.66,0,0,0-.28.55.6.6,0,0,0,.17.45,1.23,1.23,0,0,0,.44.28,6.52,6.52,0,0,0,.73.23,8.2,8.2,0,0,1,1,.32,1.72,1.72,0,0,1,.64.46,1.2,1.2,0,0,1,.27.81,1.36,1.36,0,0,1-.25.81,1.67,1.67,0,0,1-.7.57,2.46,2.46,0,0,1-1.05.2A2.92,2.92,0,0,1,71,124.22Z"/><path class="cls-5" d="M80.39,121.94H76a1.72,1.72,0,0,0,1.79,1.72,1.69,1.69,0,0,0,1-.27,1.49,1.49,0,0,0,.56-.74h1a2.34,2.34,0,0,1-.89,1.29,2.63,2.63,0,0,1-1.63.49,2.72,2.72,0,0,1-1.4-.35,2.5,2.5,0,0,1-1-1,3.46,3.46,0,0,1,0-3,2.36,2.36,0,0,1,1-1,3,3,0,0,1,2.8,0,2.44,2.44,0,0,1,.92.94,2.72,2.72,0,0,1,.33,1.34C80.42,121.57,80.4,121.75,80.39,121.94Zm-1.14-1.63a1.57,1.57,0,0,0-.63-.57,2,2,0,0,0-.87-.2,1.71,1.71,0,0,0-1.18.44A1.79,1.79,0,0,0,76,121.2h3.46A1.71,1.71,0,0,0,79.25,120.31Z"/><path class="cls-5" d="M82.72,119.61v3.23a.79.79,0,0,0,.17.57.85.85,0,0,0,.59.16h.67v.77h-.82a1.62,1.62,0,0,1-1.14-.35,1.5,1.5,0,0,1-.38-1.15v-3.23H81.1v-.75h.71v-1.38h.91v1.38h1.43v.75Z"/><path class="cls-5" d="M92.78,118.86v5.48h-.9v-.81a1.87,1.87,0,0,1-.73.66,2.2,2.2,0,0,1-1,.23,2.43,2.43,0,0,1-1.15-.26,1.93,1.93,0,0,1-.8-.8,2.56,2.56,0,0,1-.29-1.29v-3.21h.89V122a1.78,1.78,0,0,0,.41,1.25,1.68,1.68,0,0,0,2.27,0,1.84,1.84,0,0,0,.43-1.31v-3Z"/><path class="cls-5" d="M96,119.09a2.41,2.41,0,0,1,1.24-.32,2.62,2.62,0,0,1,1.33.35,2.46,2.46,0,0,1,.93,1,3,3,0,0,1,.34,1.47,3.08,3.08,0,0,1-.34,1.48,2.4,2.4,0,0,1-.93,1,2.53,2.53,0,0,1-1.33.36,2.39,2.39,0,0,1-1.23-.31,2.23,2.23,0,0,1-.82-.79v3.61h-.91v-8.08h.91v1A2.17,2.17,0,0,1,96,119.09Zm2.66,1.41a1.74,1.74,0,0,0-.67-.7,1.88,1.88,0,0,0-.94-.24,1.84,1.84,0,0,0-.92.25,1.79,1.79,0,0,0-.68.71,2.2,2.2,0,0,0-.26,1.07,2.22,2.22,0,0,0,.26,1.09,1.79,1.79,0,0,0,.68.71,1.83,1.83,0,0,0,.92.24,1.88,1.88,0,0,0,.94-.24,1.7,1.7,0,0,0,.67-.71,2.26,2.26,0,0,0,.25-1.1A2.21,2.21,0,0,0,98.7,120.5Z"/></g><g class="cls-4"><path class="cls-5" d="M27.55,132.11a2.46,2.46,0,0,1,.93-1,2.62,2.62,0,0,1,1.33-.35,2.52,2.52,0,0,1,1.25.31,2.19,2.19,0,0,1,.79.78v-1h.92v5.48h-.92v-1a2.15,2.15,0,0,1-.81.8,2.4,2.4,0,0,1-1.24.31,2.47,2.47,0,0,1-1.32-.36,2.4,2.4,0,0,1-.93-1,3.08,3.08,0,0,1-.34-1.48A3,3,0,0,1,27.55,132.11Zm4.05.4a1.86,1.86,0,0,0-2.54-.71,1.74,1.74,0,0,0-.67.7,2.21,2.21,0,0,0-.25,1.08,2.26,2.26,0,0,0,.25,1.1,1.7,1.7,0,0,0,.67.71,1.92,1.92,0,0,0,1.86,0,1.79,1.79,0,0,0,.68-.71,2.48,2.48,0,0,0,0-2.17Z"/><path class="cls-5" d="M37,132.11a2.46,2.46,0,0,1,.93-1,2.63,2.63,0,0,1,1.34-.35,2.47,2.47,0,0,1,1.19.3,2.14,2.14,0,0,1,.83.77v-2.9h.93v7.4h-.93v-1a2,2,0,0,1-.79.81,2.42,2.42,0,0,1-1.25.31,2.52,2.52,0,0,1-1.32-.36,2.4,2.4,0,0,1-.93-1,3.08,3.08,0,0,1-.34-1.48A3,3,0,0,1,37,132.11Zm4,.4a1.74,1.74,0,0,0-.67-.7,1.88,1.88,0,0,0-.93-.25,1.91,1.91,0,0,0-.94.24,1.88,1.88,0,0,0-.67.7,2.33,2.33,0,0,0-.25,1.08,2.38,2.38,0,0,0,.25,1.1,1.84,1.84,0,0,0,.67.71,1.91,1.91,0,0,0,.94.24,1.87,1.87,0,0,0,.93-.24,1.7,1.7,0,0,0,.67-.71,2.48,2.48,0,0,0,0-2.17Z"/><path class="cls-5" d="M43.77,129.79a.59.59,0,0,1-.18-.44.6.6,0,0,1,.18-.44.59.59,0,0,1,.44-.18.58.58,0,0,1,.42.18.6.6,0,0,1,.18.44.59.59,0,0,1-.18.44.58.58,0,0,1-.42.18A.59.59,0,0,1,43.77,129.79Zm.88,1.07v5.48h-.91v-5.48Z"/><path class="cls-5" d="M47.79,131a2.17,2.17,0,0,1,1.09-.26v.94h-.24c-1,0-1.53.56-1.53,1.66v3H46.2v-5.48h.91v.89A1.77,1.77,0,0,1,47.79,131Z"/><path class="cls-5" d="M54.9,133.94H50.51a1.79,1.79,0,0,0,.56,1.27,1.77,1.77,0,0,0,1.22.45,1.7,1.7,0,0,0,1-.27,1.41,1.41,0,0,0,.55-.74h1a2.27,2.27,0,0,1-.88,1.29,2.64,2.64,0,0,1-1.64.49,2.69,2.69,0,0,1-1.39-.35,2.5,2.5,0,0,1-1-1,3.13,3.13,0,0,1-.35-1.5,3.24,3.24,0,0,1,.34-1.49,2.45,2.45,0,0,1,1-1,3,3,0,0,1,2.79,0,2.4,2.4,0,0,1,.93.94,2.71,2.71,0,0,1,.32,1.34C54.92,133.57,54.91,133.75,54.9,133.94Zm-1.15-1.63a1.48,1.48,0,0,0-.62-.57,2,2,0,0,0-.88-.2,1.68,1.68,0,0,0-1.17.44,1.84,1.84,0,0,0-.56,1.22H54A1.62,1.62,0,0,0,53.75,132.31Z"/><path class="cls-5" d="M56.12,132.11a2.58,2.58,0,0,1,1-1,3,3,0,0,1,3,.14,2.25,2.25,0,0,1,.86,1.36H60a1.42,1.42,0,0,0-.54-.79,1.71,1.71,0,0,0-1-.29,1.64,1.64,0,0,0-1.27.54,2.24,2.24,0,0,0-.48,1.51,2.28,2.28,0,0,0,.48,1.53,1.64,1.64,0,0,0,1.27.54,1.71,1.71,0,0,0,1-.28,1.4,1.4,0,0,0,.54-.8h1a2.4,2.4,0,0,1-.88,1.35,2.58,2.58,0,0,1-1.64.5,2.66,2.66,0,0,1-1.39-.35,2.45,2.45,0,0,1-1-1,3.53,3.53,0,0,1,0-3Z"/><path class="cls-5" d="M63.3,131.61v3.23a.79.79,0,0,0,.17.57.85.85,0,0,0,.59.16h.67v.77h-.81a1.63,1.63,0,0,1-1.15-.35,1.5,1.5,0,0,1-.37-1.15v-3.23h-.72v-.75h.72v-1.38h.9v1.38h1.43v.75Z"/><path class="cls-5" d="M68.5,132.11a2.56,2.56,0,0,1,.94-1,2.62,2.62,0,0,1,1.33-.35,2.42,2.42,0,0,1,1.19.3,2.1,2.1,0,0,1,.84.77v-2.9h.93v7.4H72.8v-1a2.07,2.07,0,0,1-.8.81,2.35,2.35,0,0,1-1.24.31,2.52,2.52,0,0,1-1.32-.36,2.48,2.48,0,0,1-.94-1,3.19,3.19,0,0,1-.33-1.48A3.12,3.12,0,0,1,68.5,132.11Zm4,.4a1.74,1.74,0,0,0-.67-.7,1.89,1.89,0,0,0-.94-.25,1.84,1.84,0,0,0-.93.24,1.81,1.81,0,0,0-.67.7,2.33,2.33,0,0,0-.25,1.08,2.38,2.38,0,0,0,.25,1.1,1.77,1.77,0,0,0,.67.71,1.84,1.84,0,0,0,.93.24,1.88,1.88,0,0,0,.94-.24,1.7,1.7,0,0,0,.67-.71,2.48,2.48,0,0,0,0-2.17Z"/><path class="cls-5" d="M80.23,133.94H75.85a1.79,1.79,0,0,0,.56,1.27,1.77,1.77,0,0,0,1.22.45,1.7,1.7,0,0,0,1-.27,1.41,1.41,0,0,0,.55-.74h1a2.32,2.32,0,0,1-.88,1.29,2.64,2.64,0,0,1-1.64.49,2.69,2.69,0,0,1-1.39-.35,2.5,2.5,0,0,1-1-1,3.13,3.13,0,0,1-.35-1.5,3.24,3.24,0,0,1,.34-1.49,2.45,2.45,0,0,1,1-1,3,3,0,0,1,2.79,0,2.4,2.4,0,0,1,.93.94,2.71,2.71,0,0,1,.32,1.34A5.21,5.21,0,0,1,80.23,133.94Zm-1.14-1.63a1.48,1.48,0,0,0-.62-.57,2,2,0,0,0-.88-.2,1.68,1.68,0,0,0-1.17.44,1.84,1.84,0,0,0-.56,1.22h3.46A1.62,1.62,0,0,0,79.09,132.31Z"/><path class="cls-5" d="M83.19,131.08a2.5,2.5,0,0,1,1.23-.31,2.51,2.51,0,0,1,2.27,1.34,3.12,3.12,0,0,1,.33,1.47,3.19,3.19,0,0,1-.33,1.48,2.48,2.48,0,0,1-.94,1,2.53,2.53,0,0,1-1.33.36,2.4,2.4,0,0,1-1.24-.31,2,2,0,0,1-.8-.79v1h-.92v-7.4h.92v2.94A2.15,2.15,0,0,1,83.19,131.08Zm2.65,1.42a1.74,1.74,0,0,0-.67-.7,1.88,1.88,0,0,0-.94-.24,1.84,1.84,0,0,0-.92.25,1.79,1.79,0,0,0-.68.71,2.2,2.2,0,0,0-.25,1.07,2.22,2.22,0,0,0,.25,1.09,1.79,1.79,0,0,0,.68.71,1.83,1.83,0,0,0,.92.24,1.88,1.88,0,0,0,.94-.24,1.7,1.7,0,0,0,.67-.71,2.26,2.26,0,0,0,.25-1.1A2.21,2.21,0,0,0,85.84,132.5Z"/><path class="cls-5" d="M88.25,129.79a.59.59,0,0,1-.18-.44.61.61,0,0,1,.62-.62.58.58,0,0,1,.43.18.6.6,0,0,1,.17.44.6.6,0,0,1-.6.62A.6.6,0,0,1,88.25,129.79Zm.88,1.07v5.48h-.91v-5.48Z"/><path class="cls-5" d="M91.79,131.61v3.23a.79.79,0,0,0,.17.57.85.85,0,0,0,.59.16h.67v.77H92.4a1.62,1.62,0,0,1-1.14-.35,1.5,1.5,0,0,1-.38-1.15v-3.23h-.71v-.75h.71v-1.38h.91v1.38h1.43v.75Z"/><path class="cls-5" d="M97.7,129.84a2,2,0,0,1,.61,1.5,1.84,1.84,0,0,1-.65,1.56,2.77,2.77,0,0,1-1.76.5l0,.95h-.79l0-1.58h.29a3.31,3.31,0,0,0,1.55-.3,1.15,1.15,0,0,0,.56-1.13,1.27,1.27,0,0,0-.36-1,1.34,1.34,0,0,0-1-.35,1.38,1.38,0,0,0-1,.34,1.18,1.18,0,0,0-.36.91h-.86a2,2,0,0,1,.27-1,1.89,1.89,0,0,1,.77-.71,2.58,2.58,0,0,1,1.14-.25A2.28,2.28,0,0,1,97.7,129.84ZM95,136.22a.59.59,0,0,1-.18-.44.61.61,0,0,1,.62-.62.58.58,0,0,1,.43.18.6.6,0,0,1,.17.44.6.6,0,0,1-.6.62A.6.6,0,0,1,95,136.22Z"/></g></g><path class="cls-1" d="M220.11,82A56.13,56.13,0,0,0,219,63c-5.52-21.78-22.94-41.11-44.8-47.12A55.13,55.13,0,0,0,136,19.2c-16.92,8.15-34.73,28.48-30.21,48.65,4.12,18.37,23.45,28.6,40.44,32.25,22.25,4.78,43.76,8.83,64.19,20C214.41,122.23,219.72,86.38,220.11,82Z"/><rect class="cls-3" x="108.9" y="50.4" width="107.8" height="60.5"/><g class="cls-4"><g class="cls-4"><path class="cls-5" d="M125.46,50.78l-1.79,6.29H123l-1.58-5.36-1.62,5.36h-.69l-1.74-6.3H118l1.44,5.51,1.61-5.51h.71l1.56,5.51,1.45-5.51Z"/><path class="cls-5" d="M129.76,52.3a1.66,1.66,0,0,1,.7.71,2.42,2.42,0,0,1,.26,1.18v2.88h-.62V54.26a1.69,1.69,0,0,0-.4-1.22,1.45,1.45,0,0,0-1.09-.43,1.48,1.48,0,0,0-1.14.45,1.9,1.9,0,0,0-.42,1.33v2.68h-.63V50.41h.63V53a1.62,1.62,0,0,1,.69-.68,2.13,2.13,0,0,1,1-.24A2,2,0,0,1,129.76,52.3Z"/><path class="cls-5" d="M132.13,53.28a2.13,2.13,0,0,1,.84-.89,2.42,2.42,0,0,1,1.21-.31,2.17,2.17,0,0,1,1.21.33,1.82,1.82,0,0,1,.73.83V52.16h.63v4.91h-.63V56a1.9,1.9,0,0,1-.74.83,2.17,2.17,0,0,1-1.21.33,2.28,2.28,0,0,1-1.2-.31,2.19,2.19,0,0,1-.84-.89,2.88,2.88,0,0,1-.3-1.34A2.79,2.79,0,0,1,132.13,53.28Zm3.75.29a1.69,1.69,0,0,0-.66-.69,1.75,1.75,0,0,0-.93-.25,1.81,1.81,0,0,0-.93.24,1.53,1.53,0,0,0-.65.68,2.17,2.17,0,0,0-.24,1.05,2.21,2.21,0,0,0,.24,1.06,1.55,1.55,0,0,0,.65.69,1.81,1.81,0,0,0,.93.24,1.84,1.84,0,0,0,.93-.24,1.69,1.69,0,0,0,.66-.69,2.4,2.4,0,0,0,0-2.09Z"/><path class="cls-5" d="M139,52.69v3.05a.9.9,0,0,0,.17.62.86.86,0,0,0,.6.17h.58v.54h-.67a1.15,1.15,0,0,1-1.32-1.33V52.69h-.68v-.53h.68V50.92H139v1.24h1.35v.53Z"/><path class="cls-5" d="M143.88,53.28a2.15,2.15,0,0,1,.85-.89,2.47,2.47,0,0,1,1.23-.31,2.43,2.43,0,0,1,1.5.45,2.08,2.08,0,0,1,.76,1.23h-.68a1.38,1.38,0,0,0-.54-.84,1.9,1.9,0,0,0-1.93-.07,1.52,1.52,0,0,0-.63.67,2.41,2.41,0,0,0-.23,1.09,2.45,2.45,0,0,0,.23,1.1,1.54,1.54,0,0,0,.63.68,1.93,1.93,0,0,0,1.93-.08,1.35,1.35,0,0,0,.54-.84h.68a2.06,2.06,0,0,1-.77,1.21,2.32,2.32,0,0,1-1.49.46,2.37,2.37,0,0,1-1.23-.31,2.18,2.18,0,0,1-.85-.88,2.85,2.85,0,0,1-.31-1.34A2.81,2.81,0,0,1,143.88,53.28Z"/><path class="cls-5" d="M152.72,52.3a1.66,1.66,0,0,1,.7.71,2.54,2.54,0,0,1,.26,1.18v2.88h-.62V54.26a1.69,1.69,0,0,0-.4-1.22,1.45,1.45,0,0,0-1.1-.43,1.48,1.48,0,0,0-1.13.45,1.9,1.9,0,0,0-.42,1.33v2.68h-.63V50.41H150V53a1.56,1.56,0,0,1,.69-.68,2.13,2.13,0,0,1,1-.24A2.08,2.08,0,0,1,152.72,52.3Z"/><path class="cls-5" d="M155.09,53.28a2.13,2.13,0,0,1,.84-.89,2.42,2.42,0,0,1,1.21-.31,2.19,2.19,0,0,1,1.21.33,1.82,1.82,0,0,1,.73.83V52.16h.63v4.91h-.63V56a2,2,0,0,1-.74.83,2.17,2.17,0,0,1-1.21.33,2.28,2.28,0,0,1-1.2-.31,2.19,2.19,0,0,1-.84-.89,2.88,2.88,0,0,1-.3-1.34A2.79,2.79,0,0,1,155.09,53.28Zm3.75.29a1.83,1.83,0,0,0-.66-.69,1.75,1.75,0,0,0-.93-.25,1.79,1.79,0,0,0-.93.24,1.61,1.61,0,0,0-.66.68,2.29,2.29,0,0,0-.23,1.05,2.33,2.33,0,0,0,.23,1.06,1.63,1.63,0,0,0,.66.69,1.79,1.79,0,0,0,.93.24,1.75,1.75,0,0,0,1.59-.93,2.4,2.4,0,0,0,0-2.09Z"/><path class="cls-5" d="M164.89,52.61a2.08,2.08,0,0,1,.56,1.58v2.88h-.62V54.26a1.69,1.69,0,0,0-.4-1.22,1.45,1.45,0,0,0-1.09-.43,1.48,1.48,0,0,0-1.14.45,1.9,1.9,0,0,0-.42,1.33v2.68h-.63V52.16h.63V53a1.65,1.65,0,0,1,.67-.69,2.08,2.08,0,0,1,1-.23A2,2,0,0,1,164.89,52.61Z"/><path class="cls-5" d="M170.11,52.41a1.82,1.82,0,0,1,.74.82V52.16h.63v5a2.44,2.44,0,0,1-.29,1.19,2.1,2.1,0,0,1-.81.81,2.46,2.46,0,0,1-1.19.28,2.6,2.6,0,0,1-1.57-.45,1.9,1.9,0,0,1-.78-1.22h.62a1.52,1.52,0,0,0,.62.82,2,2,0,0,0,1.11.3,1.72,1.72,0,0,0,.85-.2,1.51,1.51,0,0,0,.6-.6,1.94,1.94,0,0,0,.21-.93V56a1.9,1.9,0,0,1-.74.83,2.16,2.16,0,0,1-1.2.33,2.32,2.32,0,0,1-1.21-.31,2.19,2.19,0,0,1-.84-.89,2.88,2.88,0,0,1-.3-1.34,2.79,2.79,0,0,1,.3-1.32,2.13,2.13,0,0,1,.84-.89,2.42,2.42,0,0,1,1.21-.31A2.16,2.16,0,0,1,170.11,52.41Zm.5,1.16a1.69,1.69,0,0,0-.66-.69,1.75,1.75,0,0,0-.93-.25,1.81,1.81,0,0,0-.93.24,1.58,1.58,0,0,0-.65.68,2.17,2.17,0,0,0-.24,1.05,2.21,2.21,0,0,0,.24,1.06,1.61,1.61,0,0,0,.65.69,1.81,1.81,0,0,0,.93.24,1.84,1.84,0,0,0,.93-.24,1.69,1.69,0,0,0,.66-.69,2.4,2.4,0,0,0,0-2.09Z"/><path class="cls-5" d="M177.35,54.86h-4.08a2,2,0,0,0,.27,1,1.67,1.67,0,0,0,.64.6,2,2,0,0,0,.87.2,1.74,1.74,0,0,0,1-.3,1.39,1.39,0,0,0,.55-.8h.67a2.13,2.13,0,0,1-.77,1.18,2.39,2.39,0,0,1-1.48.45,2.47,2.47,0,0,1-1.25-.31,2.27,2.27,0,0,1-.86-.88,2.85,2.85,0,0,1-.31-1.34,2.88,2.88,0,0,1,.31-1.34,2.12,2.12,0,0,1,.85-.88,2.61,2.61,0,0,1,1.26-.31,2.43,2.43,0,0,1,1.22.31,2.13,2.13,0,0,1,.81.82,2.37,2.37,0,0,1,.29,1.15C177.37,54.58,177.36,54.74,177.35,54.86Zm-.84-1.45a1.49,1.49,0,0,0-.63-.59,1.91,1.91,0,0,0-.86-.2,1.72,1.72,0,0,0-1.2.45,1.83,1.83,0,0,0-.55,1.27h3.46A1.8,1.8,0,0,0,176.51,53.41Z"/><path class="cls-5" d="M178.83,56.75a1.42,1.42,0,0,1-.6-1.07h.65a.92.92,0,0,0,.39.67,1.53,1.53,0,0,0,.93.26,1.26,1.26,0,0,0,.81-.24.78.78,0,0,0,.29-.61.56.56,0,0,0-.16-.41,1.31,1.31,0,0,0-.41-.26c-.17-.06-.39-.13-.67-.2a5.47,5.47,0,0,1-.89-.29,1.42,1.42,0,0,1-.58-.42,1.25,1.25,0,0,1,0-1.43,1.54,1.54,0,0,1,.62-.49,2.13,2.13,0,0,1,.9-.18,2,2,0,0,1,1.27.4,1.48,1.48,0,0,1,.53,1.11h-.63a1,1,0,0,0-.34-.7,1.46,1.46,0,0,0-1.63,0,.71.71,0,0,0-.12,1,1.35,1.35,0,0,0,.44.29c.17.07.41.14.7.23a4.68,4.68,0,0,1,.85.28,1.5,1.5,0,0,1,.54.39,1,1,0,0,1,.23.69,1.24,1.24,0,0,1-.21.71,1.49,1.49,0,0,1-.61.49,2.08,2.08,0,0,1-.89.18A2.3,2.3,0,0,1,178.83,56.75Z"/><path class="cls-5" d="M188.92,52.3a1.66,1.66,0,0,1,.7.71,2.54,2.54,0,0,1,.26,1.18v2.88h-.62V54.26a1.74,1.74,0,0,0-.4-1.22,1.63,1.63,0,0,0-2.23,0,1.9,1.9,0,0,0-.42,1.33v2.68h-.63V50.41h.63V53a1.59,1.59,0,0,1,.68-.68,2.2,2.2,0,0,1,1-.24A2.08,2.08,0,0,1,188.92,52.3Z"/><path class="cls-5" d="M191.29,53.28a2.17,2.17,0,0,1,.83-.89,2.45,2.45,0,0,1,1.21-.31,2.17,2.17,0,0,1,1.21.33,1.85,1.85,0,0,1,.74.83V52.16h.63v4.91h-.63V56a2,2,0,0,1-.75.83,2.15,2.15,0,0,1-1.21.33,2.33,2.33,0,0,1-1.2-.31,2.23,2.23,0,0,1-.83-.89A2.76,2.76,0,0,1,191,54.6,2.68,2.68,0,0,1,191.29,53.28Zm3.74.29a1.69,1.69,0,0,0-.66-.69,1.72,1.72,0,0,0-.92-.25,1.85,1.85,0,0,0-.94.24,1.64,1.64,0,0,0-.65.68,2.17,2.17,0,0,0-.24,1.05,2.21,2.21,0,0,0,.24,1.06,1.67,1.67,0,0,0,.65.69,1.85,1.85,0,0,0,.94.24,1.8,1.8,0,0,0,.92-.24,1.69,1.69,0,0,0,.66-.69,2.31,2.31,0,0,0,0-2.09Z"/><path class="cls-5" d="M199.09,56.46l1.66-4.3h.67l-2,4.91h-.71l-2-4.91h.68Z"/><path class="cls-5" d="M206.7,54.86h-4.08a2,2,0,0,0,.27,1,1.67,1.67,0,0,0,.64.6,1.91,1.91,0,0,0,.86.2,1.7,1.7,0,0,0,1-.3,1.36,1.36,0,0,0,.56-.8h.66a2.12,2.12,0,0,1-.76,1.18,2.4,2.4,0,0,1-1.49.45,2.46,2.46,0,0,1-1.24-.31,2.27,2.27,0,0,1-.86-.88,2.85,2.85,0,0,1-.31-1.34,2.76,2.76,0,0,1,.31-1.34,2.12,2.12,0,0,1,.85-.88,2.6,2.6,0,0,1,1.25-.31,2.44,2.44,0,0,1,1.23.31,2.13,2.13,0,0,1,.81.82,2.37,2.37,0,0,1,.29,1.15C206.72,54.58,206.71,54.74,206.7,54.86Zm-.84-1.45a1.49,1.49,0,0,0-.63-.59,1.91,1.91,0,0,0-.86-.2,1.72,1.72,0,0,0-1.2.45,1.83,1.83,0,0,0-.55,1.27h3.46A1.8,1.8,0,0,0,205.86,53.41Z"/></g><g class="cls-4"><path class="cls-5" d="M122.7,63.21a2.16,2.16,0,0,1,1.2-.33,2.38,2.38,0,0,1,1.2.31,2.13,2.13,0,0,1,.84.89,2.79,2.79,0,0,1,.3,1.32,2.88,2.88,0,0,1-.3,1.34,2.19,2.19,0,0,1-.84.89,2.33,2.33,0,0,1-1.2.31,2.17,2.17,0,0,1-1.21-.32,1.85,1.85,0,0,1-.74-.83v1.08h-.63V61.21H122V64A1.93,1.93,0,0,1,122.7,63.21Zm2.66,1.14a1.64,1.64,0,0,0-.65-.68,1.85,1.85,0,0,0-.94-.24,1.74,1.74,0,0,0-.92.25,1.69,1.69,0,0,0-.66.69,2.4,2.4,0,0,0,0,2.09,1.69,1.69,0,0,0,.66.69,1.83,1.83,0,0,0,.92.24,1.85,1.85,0,0,0,.94-.24,1.67,1.67,0,0,0,.65-.69,2.21,2.21,0,0,0,.24-1.06A2.17,2.17,0,0,0,125.36,64.35Z"/><path class="cls-5" d="M131.83,65.66h-4.08a2,2,0,0,0,.27,1,1.67,1.67,0,0,0,.64.6,1.91,1.91,0,0,0,.86.2,1.72,1.72,0,0,0,1-.3,1.36,1.36,0,0,0,.56-.8h.66a2.08,2.08,0,0,1-.77,1.18,2.35,2.35,0,0,1-1.48.45,2.46,2.46,0,0,1-1.24-.31,2.27,2.27,0,0,1-.86-.88,3.05,3.05,0,0,1,0-2.68,2.12,2.12,0,0,1,.85-.88,2.6,2.6,0,0,1,1.25-.31,2.44,2.44,0,0,1,1.23.31,2.13,2.13,0,0,1,.81.82,2.37,2.37,0,0,1,.29,1.15C131.85,65.38,131.84,65.54,131.83,65.66ZM131,64.21a1.55,1.55,0,0,0-.63-.59,1.91,1.91,0,0,0-.86-.2,1.72,1.72,0,0,0-1.2.45,1.83,1.83,0,0,0-.55,1.27h3.46A1.8,1.8,0,0,0,131,64.21Z"/><path class="cls-5" d="M137.43,65.66h-4.08a2,2,0,0,0,.27,1,1.61,1.61,0,0,0,.64.6,1.91,1.91,0,0,0,.86.2,1.72,1.72,0,0,0,1-.3,1.36,1.36,0,0,0,.56-.8h.66a2.13,2.13,0,0,1-.77,1.18,2.35,2.35,0,0,1-1.48.45,2.46,2.46,0,0,1-1.24-.31,2.21,2.21,0,0,1-.86-.88,3.05,3.05,0,0,1,0-2.68,2.06,2.06,0,0,1,.85-.88,2.57,2.57,0,0,1,1.25-.31,2.44,2.44,0,0,1,1.23.31,2.13,2.13,0,0,1,.81.82,2.36,2.36,0,0,1,.28,1.15C137.44,65.38,137.44,65.54,137.43,65.66Zm-.85-1.45a1.47,1.47,0,0,0-.62-.59,2,2,0,0,0-.87-.2,1.71,1.71,0,0,0-1.19.45,1.79,1.79,0,0,0-.55,1.27h3.45A1.63,1.63,0,0,0,136.58,64.21Z"/><path class="cls-5" d="M142.34,63.41A2.11,2.11,0,0,1,142.9,65v2.88h-.62V65.06a1.74,1.74,0,0,0-.4-1.22,1.63,1.63,0,0,0-2.23,0,1.9,1.9,0,0,0-.42,1.33v2.68h-.63V63h.63v.83a1.59,1.59,0,0,1,.67-.69,2,2,0,0,1,1-.23A2,2,0,0,1,142.34,63.41Z"/><path class="cls-5" d="M154,63.41a2.15,2.15,0,0,1,.54,1.58v2.88h-.62V65.06a1.74,1.74,0,0,0-.39-1.22,1.37,1.37,0,0,0-1.05-.43,1.45,1.45,0,0,0-1.11.46,2,2,0,0,0-.41,1.34v2.66h-.62V65.06a1.74,1.74,0,0,0-.39-1.22,1.38,1.38,0,0,0-1.06-.43,1.45,1.45,0,0,0-1.11.46,2,2,0,0,0-.41,1.34v2.66h-.63V63h.63v.84a1.65,1.65,0,0,1,.66-.7,2,2,0,0,1,1-.23,2.09,2.09,0,0,1,1.12.3,1.75,1.75,0,0,1,.69.9,1.67,1.67,0,0,1,.68-.89,2,2,0,0,1,1.1-.31A1.94,1.94,0,0,1,154,63.41Z"/><path class="cls-5" d="M156,64.08a2.13,2.13,0,0,1,.84-.89,2.42,2.42,0,0,1,1.21-.31,2.19,2.19,0,0,1,1.21.33A1.82,1.82,0,0,1,160,64V63h.63v4.91H160V66.78a2,2,0,0,1-.74.83,2.17,2.17,0,0,1-1.21.33,2.28,2.28,0,0,1-1.2-.31,2.19,2.19,0,0,1-.84-.89,2.88,2.88,0,0,1-.3-1.34A2.79,2.79,0,0,1,156,64.08Zm3.75.29a1.69,1.69,0,0,0-.66-.69,1.75,1.75,0,0,0-.93-.25,1.81,1.81,0,0,0-.93.24,1.53,1.53,0,0,0-.65.68,2.17,2.17,0,0,0-.24,1.05,2.21,2.21,0,0,0,.24,1.06,1.55,1.55,0,0,0,.65.69,1.81,1.81,0,0,0,.93.24,1.84,1.84,0,0,0,.93-.24,1.69,1.69,0,0,0,.66-.69,2.4,2.4,0,0,0,0-2.09Z"/><path class="cls-5" d="M162.05,64.08a2.13,2.13,0,0,1,.84-.89,2.45,2.45,0,0,1,1.21-.31,2.23,2.23,0,0,1,1.17.32A2,2,0,0,1,166,64V61.21h.63v6.66H166v-1.1a1.92,1.92,0,0,1-.74.84,2.19,2.19,0,0,1-1.21.33,2.34,2.34,0,0,1-1.21-.31,2.25,2.25,0,0,1-.84-.89,2.88,2.88,0,0,1-.3-1.34A2.8,2.8,0,0,1,162.05,64.08Zm3.74.29a1.69,1.69,0,0,0-.66-.69,1.74,1.74,0,0,0-.92-.25,1.85,1.85,0,0,0-.94.24,1.64,1.64,0,0,0-.65.68,2.17,2.17,0,0,0-.24,1.05,2.21,2.21,0,0,0,.24,1.06,1.67,1.67,0,0,0,.65.69,1.85,1.85,0,0,0,.94.24,1.83,1.83,0,0,0,.92-.24,1.69,1.69,0,0,0,.66-.69,2.31,2.31,0,0,0,0-2.09Z"/><path class="cls-5" d="M172.53,65.66h-4.07a1.8,1.8,0,0,0,.27,1,1.61,1.61,0,0,0,.64.6,1.91,1.91,0,0,0,.86.2,1.72,1.72,0,0,0,1-.3,1.35,1.35,0,0,0,.55-.8h.67a2.13,2.13,0,0,1-.77,1.18,2.37,2.37,0,0,1-1.48.45,2.43,2.43,0,0,1-1.24-.31,2.21,2.21,0,0,1-.86-.88,2.73,2.73,0,0,1-.31-1.34,2.88,2.88,0,0,1,.3-1.34,2.15,2.15,0,0,1,.86-.88,2.54,2.54,0,0,1,1.25-.31,2.44,2.44,0,0,1,1.23.31,2.13,2.13,0,0,1,.81.82,2.36,2.36,0,0,1,.28,1.15A3.41,3.41,0,0,1,172.53,65.66Zm-.84-1.45a1.47,1.47,0,0,0-.62-.59,2,2,0,0,0-.87-.2,1.7,1.7,0,0,0-1.19.45,1.79,1.79,0,0,0-.55,1.27h3.45A1.63,1.63,0,0,0,171.69,64.21Z"/><path class="cls-5" d="M176.19,64.08a2.13,2.13,0,0,1,.84-.89,2.45,2.45,0,0,1,1.21-.31,2.23,2.23,0,0,1,1.17.32,1.87,1.87,0,0,1,.76.82V61.21h.63v6.66h-.63v-1.1a1.9,1.9,0,0,1-.73.84,2.22,2.22,0,0,1-1.21.33,2.34,2.34,0,0,1-1.21-.31,2.19,2.19,0,0,1-.84-.89,2.88,2.88,0,0,1-.3-1.34A2.68,2.68,0,0,1,176.19,64.08Zm3.74.29a1.69,1.69,0,0,0-.66-.69,1.74,1.74,0,0,0-.92-.25,1.85,1.85,0,0,0-.94.24,1.64,1.64,0,0,0-.65.68,2.17,2.17,0,0,0-.24,1.05,2.21,2.21,0,0,0,.24,1.06,1.67,1.67,0,0,0,.65.69,1.85,1.85,0,0,0,.94.24,1.83,1.83,0,0,0,.92-.24,1.69,1.69,0,0,0,.66-.69,2.4,2.4,0,0,0,0-2.09Z"/><path class="cls-5" d="M186.5,63v4.91h-.63V67a1.54,1.54,0,0,1-.66.7,2.12,2.12,0,0,1-1,.24,2,2,0,0,1-1.44-.54,2.09,2.09,0,0,1-.56-1.58V63h.62v2.79a1.7,1.7,0,0,0,.4,1.23,1.44,1.44,0,0,0,1.09.42,1.48,1.48,0,0,0,1.14-.45,1.87,1.87,0,0,0,.42-1.32V63Z"/><path class="cls-5" d="M192.37,65.66h-4.08a2,2,0,0,0,.27,1,1.67,1.67,0,0,0,.64.6,2,2,0,0,0,.87.2,1.74,1.74,0,0,0,1-.3,1.35,1.35,0,0,0,.55-.8h.67a2.13,2.13,0,0,1-.77,1.18,2.39,2.39,0,0,1-1.48.45,2.47,2.47,0,0,1-1.25-.31,2.27,2.27,0,0,1-.86-.88,2.85,2.85,0,0,1-.31-1.34,2.88,2.88,0,0,1,.31-1.34,2.12,2.12,0,0,1,.85-.88,2.61,2.61,0,0,1,1.26-.31,2.43,2.43,0,0,1,1.22.31,2.06,2.06,0,0,1,.81.82,2.37,2.37,0,0,1,.29,1.15C192.39,65.38,192.38,65.54,192.37,65.66Zm-.84-1.45a1.44,1.44,0,0,0-.63-.59,1.91,1.91,0,0,0-.86-.2,1.72,1.72,0,0,0-1.2.45,1.83,1.83,0,0,0-.55,1.27h3.46A1.8,1.8,0,0,0,191.53,64.21Z"/><path class="cls-5" d="M196.82,63.49v3.05a.65.65,0,0,0,.78.79h.57v.54h-.67a1.15,1.15,0,0,1-1.32-1.33V63.49h-.68V63h.68V61.72h.64V63h1.35v.53Z"/><path class="cls-5" d="M200.11,67.63a2.23,2.23,0,0,1-.87-.88,2.74,2.74,0,0,1-.32-1.34,2.6,2.6,0,0,1,.33-1.33,2.16,2.16,0,0,1,.88-.89,2.68,2.68,0,0,1,2.5,0,2.24,2.24,0,0,1,.89.89,2.7,2.7,0,0,1,.31,1.33,2.59,2.59,0,0,1-.32,1.33,2.24,2.24,0,0,1-.89.89,2.56,2.56,0,0,1-1.26.31A2.49,2.49,0,0,1,200.11,67.63Zm2.15-.46a1.7,1.7,0,0,0,.67-.66,2.21,2.21,0,0,0,.26-1.1,2.17,2.17,0,0,0-.26-1.09,1.64,1.64,0,0,0-.66-.67,2,2,0,0,0-.9-.22,2,2,0,0,0-.9.22,1.58,1.58,0,0,0-.66.67,2.17,2.17,0,0,0-.25,1.09,2.21,2.21,0,0,0,.25,1.1,1.65,1.65,0,0,0,.65.66,2,2,0,0,0,1.8,0Z"/></g><g class="cls-4"><path class="cls-5" d="M125.24,73.86a2.9,2.9,0,0,1,1.11-1.14,3,3,0,0,1,1.56-.41,3.13,3.13,0,0,1,1.81.5,2.84,2.84,0,0,1,1.09,1.4h-.74a2.16,2.16,0,0,0-.82-1,2.4,2.4,0,0,0-1.34-.37,2.37,2.37,0,0,0-1.24.33,2.3,2.3,0,0,0-.87.93,3.05,3.05,0,0,0-.32,1.41,3,3,0,0,0,.32,1.4,2.24,2.24,0,0,0,.87.93,2.36,2.36,0,0,0,1.24.32,2.39,2.39,0,0,0,1.34-.35,2.16,2.16,0,0,0,.82-1h.74a2.8,2.8,0,0,1-1.1,1.4,3.19,3.19,0,0,1-1.8.49,3,3,0,0,1-1.56-.41,2.94,2.94,0,0,1-1.11-1.13,3.64,3.64,0,0,1,0-3.32Z"/><path class="cls-5" d="M133.31,78.32a3,3,0,0,1-1.13-1.14,3.64,3.64,0,0,1,0-3.32,3,3,0,0,1,1.13-1.14,3.27,3.27,0,0,1,3.17,0,2.86,2.86,0,0,1,1.12,1.14,3.64,3.64,0,0,1,0,3.32,2.86,2.86,0,0,1-1.12,1.14,3.27,3.27,0,0,1-3.17,0Zm2.84-.46a2.32,2.32,0,0,0,.88-.93,2.94,2.94,0,0,0,.33-1.41,2.87,2.87,0,0,0-.33-1.4,2.2,2.2,0,0,0-.88-.93,2.57,2.57,0,0,0-2.52,0,2.2,2.2,0,0,0-.88.93,2.87,2.87,0,0,0-.33,1.4,2.94,2.94,0,0,0,.33,1.41,2.32,2.32,0,0,0,.88.93,2.64,2.64,0,0,0,2.52,0Z"/><path class="cls-5" d="M144.14,72.38l-2.38,6.29H141l-2.39-6.29h.68L141.4,78l2.08-5.61Z"/><path class="cls-5" d="M145.72,72.38v6.29h-.63V72.38Z"/><path class="cls-5" d="M150.8,72.76a2.56,2.56,0,0,1,1.14,1.09,3.75,3.75,0,0,1,0,3.37,2.59,2.59,0,0,1-1.14,1.08,3.94,3.94,0,0,1-1.79.37h-1.86V72.38H149A3.82,3.82,0,0,1,150.8,72.76Zm.21,4.7a2.6,2.6,0,0,0,.69-1.92A2.63,2.63,0,0,0,151,73.6a2.66,2.66,0,0,0-2-.7h-1.23v5.25H149A2.7,2.7,0,0,0,151,77.46Z"/><path class="cls-5" d="M157.33,74a2.17,2.17,0,0,1,1.21-.33,2.41,2.41,0,0,1,1.2.31,2.13,2.13,0,0,1,.84.89,2.79,2.79,0,0,1,.3,1.32,2.88,2.88,0,0,1-.3,1.34,2.19,2.19,0,0,1-.84.89,2.31,2.31,0,0,1-1.2.31,2.22,2.22,0,0,1-1.21-.33,1.93,1.93,0,0,1-.74-.82V81H156V73.76h.62v1.08A2,2,0,0,1,157.33,74ZM160,75.15a1.58,1.58,0,0,0-.65-.68,1.81,1.81,0,0,0-.93-.24,1.75,1.75,0,0,0-.93.25,1.69,1.69,0,0,0-.66.69,2.4,2.4,0,0,0,0,2.09,1.69,1.69,0,0,0,.66.69,1.84,1.84,0,0,0,.93.24,1.81,1.81,0,0,0,.93-.24,1.61,1.61,0,0,0,.65-.69,2.21,2.21,0,0,0,.24-1.06A2.17,2.17,0,0,0,160,75.15Z"/><path class="cls-5" d="M163.31,73.92a2,2,0,0,1,1-.25v.65h-.17a1.6,1.6,0,0,0-1.09.37,1.58,1.58,0,0,0-.42,1.23v2.75H162V73.76h.63v.87A1.52,1.52,0,0,1,163.31,73.92Z"/><path class="cls-5" d="M166.2,78.43a2.23,2.23,0,0,1-.87-.88,2.74,2.74,0,0,1-.32-1.34,2.6,2.6,0,0,1,.33-1.33,2.22,2.22,0,0,1,.88-.89,2.68,2.68,0,0,1,2.5,0,2.24,2.24,0,0,1,.89.89,2.7,2.7,0,0,1,.32,1.33,2.6,2.6,0,0,1-.33,1.33,2.18,2.18,0,0,1-.89.89,2.56,2.56,0,0,1-1.26.31A2.49,2.49,0,0,1,166.2,78.43Zm2.15-.46a1.7,1.7,0,0,0,.67-.66,2.21,2.21,0,0,0,.26-1.1,2.28,2.28,0,0,0-.25-1.09,1.66,1.66,0,0,0-.67-.67,2,2,0,0,0-1.8,0,1.58,1.58,0,0,0-.66.67,2.17,2.17,0,0,0-.25,1.09,2.21,2.21,0,0,0,.25,1.1,1.61,1.61,0,0,0,.66.66,1.81,1.81,0,0,0,.89.22A1.87,1.87,0,0,0,168.35,78Z"/><path class="cls-5" d="M171.9,74.29v3a.85.85,0,0,0,.17.62.84.84,0,0,0,.6.17h.58v.54h-.68a1.38,1.38,0,0,1-1-.31,1.4,1.4,0,0,1-.32-1v-3h-.69v-.53h.69V72.52h.64v1.24h1.35v.53Z"/><path class="cls-5" d="M175.19,78.43a2.32,2.32,0,0,1-.88-.88,2.74,2.74,0,0,1-.32-1.34,2.6,2.6,0,0,1,.33-1.33,2.22,2.22,0,0,1,.88-.89,2.6,2.6,0,0,1,1.25-.31,2.67,2.67,0,0,1,1.26.31,2.22,2.22,0,0,1,.88.89,2.7,2.7,0,0,1,.32,1.33,2.6,2.6,0,0,1-.33,1.33,2.18,2.18,0,0,1-.89.89,2.56,2.56,0,0,1-1.26.31A2.46,2.46,0,0,1,175.19,78.43Zm2.14-.46a1.7,1.7,0,0,0,.67-.66,2.21,2.21,0,0,0,.26-1.1,2.17,2.17,0,0,0-.25-1.09,1.66,1.66,0,0,0-.67-.67,1.93,1.93,0,0,0-.9-.22,2,2,0,0,0-.9.22,1.64,1.64,0,0,0-.66.67,2.17,2.17,0,0,0-.25,1.09,2.21,2.21,0,0,0,.25,1.1,1.61,1.61,0,0,0,.66.66,1.93,1.93,0,0,0,1.79,0Z"/><path class="cls-5" d="M180.08,74.88a2.13,2.13,0,0,1,.84-.89,2.53,2.53,0,0,1,1.24-.31,2.43,2.43,0,0,1,1.5.45,2.08,2.08,0,0,1,.76,1.23h-.68a1.38,1.38,0,0,0-.54-.84,1.9,1.9,0,0,0-1.93-.07,1.52,1.52,0,0,0-.63.67,2.41,2.41,0,0,0-.23,1.09,2.45,2.45,0,0,0,.23,1.1,1.54,1.54,0,0,0,.63.68,1.93,1.93,0,0,0,1.93-.08,1.35,1.35,0,0,0,.54-.84h.68a2.06,2.06,0,0,1-.77,1.21,2.34,2.34,0,0,1-1.49.46,2.43,2.43,0,0,1-1.24-.31,2.16,2.16,0,0,1-.84-.88,2.73,2.73,0,0,1-.31-1.34A2.7,2.7,0,0,1,180.08,74.88Z"/><path class="cls-5" d="M186.48,78.43a2.23,2.23,0,0,1-.87-.88,2.63,2.63,0,0,1-.32-1.34,2.7,2.7,0,0,1,.32-1.33,2.28,2.28,0,0,1,.88-.89,2.64,2.64,0,0,1,1.26-.31A2.6,2.6,0,0,1,189,74a2.16,2.16,0,0,1,.88.89,2.59,2.59,0,0,1,.32,1.33,2.7,2.7,0,0,1-.32,1.33,2.24,2.24,0,0,1-.89.89,2.56,2.56,0,0,1-1.26.31A2.49,2.49,0,0,1,186.48,78.43Zm2.15-.46a1.77,1.77,0,0,0,.67-.66,2.21,2.21,0,0,0,.25-1.1,2.17,2.17,0,0,0-.25-1.09,1.7,1.7,0,0,0-.66-.67,2,2,0,0,0-.9-.22,1.93,1.93,0,0,0-.9.22,1.66,1.66,0,0,0-.67.67,2.28,2.28,0,0,0-.24,1.09,2.32,2.32,0,0,0,.24,1.1,1.74,1.74,0,0,0,.66.66,1.85,1.85,0,0,0,.9.22A1.87,1.87,0,0,0,188.63,78Z"/><path class="cls-5" d="M192,72v6.66h-.62V72Z"/><path class="cls-5" d="M196,72.52a1.66,1.66,0,0,1,.69.65,1.79,1.79,0,0,1,.25,1,1.67,1.67,0,0,1-.6,1.43,2.65,2.65,0,0,1-1.63.45l0,1h-.54l0-1.44h.24a3,3,0,0,0,1.46-.29,1.16,1.16,0,0,0,.53-1.14,1.22,1.22,0,0,0-.37-.94,1.36,1.36,0,0,0-1-.35,1.4,1.4,0,0,0-1,.33,1.18,1.18,0,0,0-.36.91H193a1.72,1.72,0,0,1,.25-.94,1.57,1.57,0,0,1,.68-.62,2.18,2.18,0,0,1,1-.22A2.25,2.25,0,0,1,196,72.52ZM194,78.58a.44.44,0,0,1-.13-.33.43.43,0,0,1,.13-.33.44.44,0,0,1,.33-.13.42.42,0,0,1,.32.13.43.43,0,0,1,.13.33.44.44,0,0,1-.13.33.42.42,0,0,1-.32.13A.44.44,0,0,1,194,78.58Z"/></g></g><path class="cls-7" d="M327,171.86a12,12,0,0,1,6.21,7.87Q335,186,332,190.09t-9.6,6l1.45,5.71-4.7,1.35-2.95-9.32,1.73-.5q5.88-1.69,8.7-4.45t1.39-7.68a7.83,7.83,0,0,0-3.77-5,8.26,8.26,0,0,0-6.37-.42,8.44,8.44,0,0,0-5.22,3.67,7.44,7.44,0,0,0-.54,6.05L307,187a12.52,12.52,0,0,1-.2-6.74,11.29,11.29,0,0,1,3.34-5.51,15.52,15.52,0,0,1,6.37-3.45A14.1,14.1,0,0,1,327,171.86ZM322,214.38a3.88,3.88,0,0,1-1.51-5.24,3.75,3.75,0,0,1,2.31-1.82,3.56,3.56,0,0,1,2.83.34,4,4,0,0,1,1.51,5.23,3.49,3.49,0,0,1-2.21,1.8A3.69,3.69,0,0,1,322,214.38Z"/><path class="cls-7" d="M181.2,254.35a9.27,9.27,0,0,1,2.81,4.51,10.44,10.44,0,0,1-.08,5.62q-1.44,5.28-5.36,6.86t-9.53.06l-1.61,5.33-2.94-.79,1.94-7.88,1.27.35a17.18,17.18,0,0,0,8.37.57c2.22-.53,3.75-2.32,4.59-5.39a7,7,0,0,0-.64-5.68,8.85,8.85,0,0,0-10.6-3,6.6,6.6,0,0,0-3.29,4.41l-3.28-.89a9.8,9.8,0,0,1,2.74-4.74,9.26,9.26,0,0,1,4.62-2.36,12.33,12.33,0,0,1,5.78.28A12.66,12.66,0,0,1,181.2,254.35Zm-19.35,30a2.61,2.61,0,0,1-.22-2,2.51,2.51,0,0,1,1.2-1.59,2.65,2.65,0,0,1,3.52.95,2.52,2.52,0,0,1,.22,2,2.56,2.56,0,0,1-1.2,1.62,2.42,2.42,0,0,1-1.93.26A2.48,2.48,0,0,1,161.85,284.4Z"/><path class="cls-7" d="M92.07,34.19a11.39,11.39,0,0,1,.71,9.52c-1.19,3.72-3.25,6.13-6.2,7.26S80.2,52,76.3,50.8l-1.6,4.28-5.47-1.74,2.49-8.74,1.82.58c3.56,1.13,6.45,1.52,8.65,1.17s3.72-1.87,4.57-4.55a6.41,6.41,0,0,0-.22-5.12,6.68,6.68,0,0,0-4.13-3.14,7,7,0,0,0-5.2.11,6.1,6.1,0,0,0-3.13,3.92l-5.91-1.88a12.39,12.39,0,0,1,3.37-5.43A10.69,10.69,0,0,1,77.1,27.6a14.79,14.79,0,0,1,6.94.63Q89.67,30,92.07,34.19ZM65.5,64.3a4.07,4.07,0,0,1-.25-3.23,4.15,4.15,0,0,1,2.07-2.5,4.09,4.09,0,0,1,3.24-.25,4.15,4.15,0,0,1,2.69,5.3,4.11,4.11,0,0,1-2.07,2.5A4.26,4.26,0,0,1,65.5,64.3Z"/></svg>